<?xml version="1.0" encoding="utf-8"?>
<!-- Generator: Adobe Illustrator 24.0.2, SVG Export Plug-In . SVG Version: 6.00 Build 0)  -->
<svg version="1.1" xmlns="http://www.w3.org/2000/svg" xmlns:xlink="http://www.w3.org/1999/xlink" x="0px" y="0px"
	 viewBox="0 0 120.3 35.8" style="enable-background:new 0 0 120.3 35.8;" xml:space="preserve">
<style type="text/css">
	.st0{display:none;}
	.st1{display:inline;fill:#5830E0;}
	.st2{display:inline;fill:#081828;}
	.st3{fill:#5830E0;}
</style>
<g id="Layer_1" class="st0">
	<title>ns</title>
	<path class="st1" d="M-24.3,35.5c-16.5,2.5-10.2-9.9-10.2-9.9c1.3-2.5,2.9-4.9,4.7-7.1c-0.6-1.5-0.9-3.1-0.9-4.7
		c0-7.2,5.8-13.1,13-13.1c2.9,0,5.8,1,8.1,2.7C-6.7,2-3.6,0.8-0.5,0c-18.6,8.2-26.3,17.5-29.4,21.6C-40,36.9-25.1,35.5-24.3,35.5z"
		/>
	<path class="st2" d="M-8.2,27.8c0,0-6.9,0.9-12.6-1.4l0,0l-0.8-0.2c1.1-3.2,5.3-13.3,15-19.4c3.8,6.1,2,14.2-4.1,18
		c-0.2,0.1-0.3,0.2-0.5,0.3C-10.4,26.2-9.4,27.2-8.2,27.8z"/>
	<path class="st1" d="M-24.5,33.1c0,0-8.5-5.9,12.3-24.5C-12.2,8.6-36.5,28.2-24.5,33.1z"/>
	<path class="st1" d="M19.7,10.8l-2.1,1.9c-1.2-1.4-2.9-2.2-4.8-2.2c-2.9,0-5.3,2.3-5.3,5.2c0,0,0,0.1,0,0.1c0,1,0.2,1.9,0.7,2.8
		c0.4,0.8,1.1,1.5,1.9,1.9c0.8,0.5,1.8,0.7,2.8,0.7c0.8,0,1.6-0.1,2.3-0.5c0.9-0.4,1.7-1,2.3-1.8l2,2.1c-0.9,1-2,1.8-3.3,2.3
		c-1.1,0.5-2.3,0.7-3.5,0.6c-2.2,0.1-4.4-0.7-6-2.3c-1.6-1.6-2.4-3.7-2.3-5.9c0-1.5,0.3-2.9,1.1-4.1c0.7-1.2,1.8-2.2,3-2.9
		c1.3-0.7,2.8-1.1,4.2-1.1c2.6,0,5.1,1.2,6.8,3.1L19.7,10.8z"/>
	<path class="st1" d="M21.7,7.7h2.9v16h-2.9V7.7z"/>
	<path class="st1" d="M35.7,12.1h2.9v11.6h-2.9v-1.2c-0.5,0.5-1.1,0.9-1.7,1.2c-0.6,0.2-1.2,0.4-1.8,0.4c-1.5,0-2.9-0.6-3.9-1.7
		c-1.1-1.2-1.7-2.7-1.6-4.3c-0.1-1.6,0.5-3.2,1.5-4.4c1-1.1,2.4-1.7,3.8-1.7c0.7,0,1.4,0.1,2,0.4c0.6,0.3,1.2,0.7,1.7,1.2L35.7,12.1
		z M32.7,14.5c-0.9,0-1.7,0.4-2.2,1c-0.6,0.7-0.9,1.5-0.9,2.4c0,0.9,0.3,1.8,0.9,2.5c0.6,0.6,1.4,1,2.2,1c0.9,0,1.7-0.4,2.3-1
		c0.6-0.7,0.9-1.6,0.9-2.5c0-0.9-0.3-1.8-0.9-2.4C34.4,14.8,33.6,14.5,32.7,14.5L32.7,14.5z"/>
	<path class="st1" d="M48.6,13.8l-1.8,1.8c-0.5-0.6-1.2-1-2-1.1c-0.3,0-0.5,0.1-0.8,0.2c-0.2,0.1-0.3,0.3-0.3,0.5
		c0,0.2,0.1,0.3,0.2,0.4c0.3,0.2,0.6,0.4,0.9,0.5l1.1,0.5c0.9,0.4,1.7,0.9,2.3,1.7c1,1.4,0.8,3.4-0.5,4.6c-0.8,0.7-1.9,1.1-3,1
		c-1.6,0-3.1-0.7-4-2l1.8-1.9c0.3,0.4,0.7,0.7,1.2,1c0.4,0.2,0.8,0.3,1.2,0.4c0.3,0,0.7-0.1,0.9-0.3c0.2-0.1,0.3-0.4,0.3-0.6
		c0-0.4-0.4-0.9-1.3-1.3l-1-0.5c-1.9-0.9-2.8-2.1-2.8-3.5c0-0.9,0.4-1.8,1.1-2.3c0.7-0.7,1.7-1,2.7-1C46.4,11.8,47.8,12.5,48.6,13.8
		z"/>
	<path class="st1" d="M58.2,13.8l-1.8,1.8c-0.5-0.6-1.2-1-2-1.1c-0.3,0-0.5,0.1-0.8,0.2c-0.2,0.1-0.3,0.3-0.3,0.5
		c0,0.2,0.1,0.3,0.2,0.4c0.3,0.2,0.6,0.4,0.9,0.5l1.1,0.5c0.9,0.4,1.7,1,2.3,1.7c1,1.5,0.7,3.4-0.6,4.6c-0.8,0.7-1.9,1.1-3,1
		c-1.6,0-3.1-0.7-4-2L52,20c0.3,0.4,0.7,0.7,1.2,1c0.4,0.2,0.8,0.3,1.2,0.4c0.3,0,0.7-0.1,0.9-0.3c0.2-0.1,0.3-0.4,0.3-0.6
		c0-0.4-0.4-0.9-1.3-1.3l-1-0.5c-1.9-0.9-2.8-2.1-2.8-3.5c0-0.9,0.4-1.8,1.1-2.3c0.7-0.7,1.7-1,2.7-1C55.9,11.8,57.3,12.5,58.2,13.8
		z"/>
	<path class="st1" d="M61.8,7.4c0.5,0,1,0.2,1.3,0.6c0.4,0.4,0.6,0.8,0.5,1.3c0,0.5-0.2,1-0.5,1.3c-0.3,0.4-0.8,0.6-1.3,0.6
		c-0.5,0-1-0.2-1.3-0.6C60.2,10.2,60,9.7,60,9.2C60,8.2,60.8,7.4,61.8,7.4C61.8,7.4,61.8,7.4,61.8,7.4z M60.4,12.1h2.9v11.6h-2.9
		L60.4,12.1z"/>
	<path class="st2" d="M83,10.6l-2.1,2.1c-1.2-1.3-2.9-2.1-4.6-2.1c-1.4,0-2.8,0.5-3.9,1.5c-1,1-1.6,2.3-1.6,3.7
		c0,1.4,0.6,2.8,1.6,3.8c1.1,1,2.5,1.6,4,1.6c0.9,0,1.8-0.2,2.6-0.6c0.8-0.5,1.3-1.2,1.7-2h-4.6v-2.8h7.9v0.7c0,1.4-0.4,2.7-1.1,3.9
		c-0.6,1.2-1.6,2.1-2.8,2.8c-1.2,0.7-2.6,1-4,1c-1.5,0-3-0.3-4.3-1.1c-1.3-0.7-2.3-1.7-3-3c-0.7-1.3-1.1-2.8-1.1-4.3
		c0-2,0.7-3.9,2-5.4c1.6-1.8,3.9-2.8,6.4-2.7c1.3,0,2.6,0.2,3.8,0.8C81.2,8.9,82.2,9.7,83,10.6z"/>
	<path class="st2" d="M85.8,12.1h2.5v1.4c0.2-0.5,0.6-1,1.1-1.3c0.4-0.3,0.9-0.5,1.5-0.4c0.4,0,0.8,0.1,1.2,0.3l-0.9,2.5
		c-0.3-0.1-0.5-0.2-0.8-0.3c-0.5,0-0.9,0.4-1.1,0.8c-0.4,1-0.5,2.1-0.5,3.3v5.2h-2.9L85.8,12.1z"/>
	<path class="st2" d="M94.6,7.4c0.5,0,1,0.2,1.3,0.6c0.4,0.4,0.6,0.8,0.5,1.3c0,0.5-0.2,1-0.5,1.3c-0.3,0.4-0.8,0.6-1.3,0.6
		c-0.5,0-1-0.2-1.3-0.6c-0.4-0.4-0.6-0.8-0.5-1.4C92.8,8.2,93.6,7.4,94.6,7.4C94.6,7.4,94.6,7.4,94.6,7.4z M93.2,12.1h2.9v11.6h-2.9
		V12.1z"/>
	<path class="st2" d="M107.2,7.7h2.9v16h-2.9v-1.2c-0.5,0.5-1.1,0.9-1.7,1.2c-0.6,0.2-1.2,0.4-1.9,0.4c-1.5,0-2.9-0.6-3.9-1.7
		c-1.1-1.2-1.7-2.7-1.6-4.3c-0.1-1.6,0.5-3.2,1.6-4.4c1-1.1,2.4-1.7,3.8-1.7c0.7,0,1.4,0.1,2,0.4c0.6,0.3,1.2,0.7,1.6,1.2V7.7z
		 M104.2,14.5c-0.9,0-1.7,0.4-2.2,1c-0.6,0.7-0.9,1.5-0.9,2.4c0,0.9,0.3,1.8,0.9,2.5c0.6,0.6,1.4,1,2.2,1c0.9,0,1.7-0.4,2.3-1
		c0.6-0.7,0.9-1.6,0.9-2.5c0-0.9-0.3-1.8-0.9-2.4C105.9,14.8,105,14.5,104.2,14.5L104.2,14.5z"/>
	<path class="st2" d="M120.1,13.8l-1.8,1.8c-0.5-0.6-1.2-1-2-1.1c-0.3,0-0.5,0.1-0.8,0.2c-0.2,0.1-0.3,0.3-0.3,0.5
		c0,0.2,0.1,0.3,0.2,0.4c0.3,0.2,0.6,0.4,0.9,0.5l1.1,0.5c0.9,0.4,1.7,1,2.3,1.7c1,1.4,0.8,3.4-0.5,4.6c-0.8,0.7-1.9,1.1-3,1
		c-1.6,0-3.1-0.7-4-2L114,20c0.3,0.4,0.7,0.7,1.2,1c0.4,0.2,0.8,0.3,1.2,0.4c0.3,0,0.7-0.1,0.9-0.3c0.2-0.1,0.3-0.4,0.4-0.6
		c0-0.4-0.4-0.9-1.3-1.3l-1-0.5c-1.9-0.9-2.8-2.1-2.8-3.5c0-0.9,0.4-1.8,1.1-2.3c0.7-0.7,1.7-1,2.7-1
		C117.9,11.8,119.3,12.5,120.1,13.8L120.1,13.8z"/>
</g>
<g id="Layer_2">
	<g>
		<path class="st3" d="M16.4,7.8h13.2v20.3H16.4V7.8z M23,8.3c0,1.8-0.2,3.2-0.5,4.5c-0.4,1.2-0.8,2.2-1.4,3c-0.6,0.8-1.2,1.3-2,1.7
			c-0.7,0.3-1.5,0.5-2.2,0.6c0.7,0,1.4,0.2,2.2,0.6c0.7,0.3,1.4,0.9,2,1.6c0.6,0.8,1.1,1.7,1.4,2.9c0.4,1.2,0.5,2.7,0.5,4.5
			c0-1.8,0.2-3.2,0.5-4.5c0.4-1.2,0.8-2.2,1.4-3s1.2-1.3,2-1.7c0.7-0.3,1.4-0.5,2.2-0.6c-0.7,0-1.4-0.2-2.2-0.6
			c-0.7-0.3-1.4-0.9-2-1.6c-0.6-0.8-1.1-1.7-1.4-3C23.2,11.6,23,10.1,23,8.3z M30.8,7.8h4.8V15h2.2V19h-2.2v9h-4.8V7.8z"/>
		<path d="M43.1,7.8h5.5l4.6,9.1h-5L45.8,12l-2.3,4.9h-5L43.1,7.8z M38.7,17.5h19.9v5.8c-1.2,0.2-2.4,0.3-3.6,0.4
			c-1.2,0.1-2.4,0.2-3.6,0.3s-2.5,0.1-3.8,0.2c-1.3,0-2.7,0-4.1,0V25c1.5,0,2.8,0,4.1,0s2.6-0.1,3.8-0.2c1.2-0.1,2.4-0.2,3.6-0.3
			c1.2-0.1,2.4-0.3,3.7-0.5v4h-20v-6.8h15.1v-0.7H38.7V17.5z M53.9,7.8h4.8v9.1h-4.8V7.8z"/>
		<path d="M67.5,28.1c0.2-1.4,0.4-2.8,0.6-4.2c0.2-1.3,0.3-2.7,0.5-4c0.1-1.3,0.3-2.7,0.4-4.1c0.1-1.4,0.2-2.8,0.2-4.3h-8.3V7.8
			h13.3c0,1.8-0.1,3.6-0.2,5.3c-0.1,1.7-0.2,3.3-0.3,5s-0.3,3.3-0.5,4.9c-0.2,1.6-0.4,3.4-0.7,5.1H67.5z M75.5,7.8h4.8V15h2.2V19
			h-2.2v9h-4.8V7.8z"/>
		<path d="M87.7,7.8h5.5l4.6,9.1h-5L90.5,12l-2.3,4.9h-5L87.7,7.8z M83.4,17.5h19.9v5.8c-1.2,0.2-2.4,0.3-3.6,0.4
			c-1.2,0.1-2.4,0.2-3.6,0.3c-1.2,0.1-2.5,0.1-3.8,0.2c-1.3,0-2.7,0-4.1,0V25c1.5,0,2.8,0,4.1,0c1.3,0,2.6-0.1,3.8-0.2
			c1.2-0.1,2.4-0.2,3.6-0.3c1.2-0.1,2.4-0.3,3.7-0.5v4h-20v-6.8h15.1v-0.7H83.4V17.5z M98.5,7.8h4.8v9.1h-4.8V7.8z"/>
	</g>
</g>
</svg>
