<svg xmlns="http://www.w3.org/2000/svg" id="Layer_1" data-name="Layer 1" viewBox="0 0 158.83 238.68"><defs><style>.cls-2{fill:#a8a8a8;stroke:#666;stroke-linecap:round;stroke-linejoin:round;stroke-width:.1px}.cls-3,.cls-4{isolation:isolate;font-size:3.99px}.cls-3{font-family:AdobeMyungjoStd-Medium-KSCpc-EUC-H,Adobe Myungjo Std}.cls-4{font-family:ArialMT,Arial}</style></defs><path id="AC39" d="m36.9 224.7-1.6.6h-2.5s-.6.9-.8.9-3.7 1.3-3.7 1.3c-.5.6-1 1.1-1.5 1.6-.2.1-3.2 2.6-3.2 2.6l-.5.4v2.1l.6 1.5c.2.3 1.1.6 1.6 1a9 9 0 0 1 1 .9l1.1 1.2.6-.9.7-.3H30l2.7.1a12.19 12.19 0 0 1 2.7 0c.5.3 1 .6 1.6.9l3.7-.8 1.5-.8h2.2a13.4 13.4 0 0 0 2-.1c.3-.2 2.1-1 2.1-1l.9-.1a4.44 4.44 0 0 1 .8-1.1 3.1 3.1 0 0 0 .6-1.3l1.2-1.2s1.3-1 1.4-1.4-.3-1 0-1.2 0-1.5 0-1.5a8.32 8.32 0 0 0-.2-1.3 4.89 4.89 0 0 0-1.3-1.2c-.3-.1-.6-.2-1-.3l-1.2-1.2-1.2-.4H46l-1.5.4c-.2.1-3.5.1-3.5.1l-2.7.5Z" style="stroke-width:.25px;fill:#a8a8a8;stroke:#666;stroke-linecap:round;stroke-linejoin:round" transform="translate(.68 -.24)"/><g id="AC34"><path d="M80.88 123.96a1.69 1.69 0 0 0-.6.3c-.1.1-.2.2-.3.2s-.1.2-.1.2-.1.2-.2.3a.76.76 0 0 1-.2.4l-.6.6a2.51 2.51 0 0 0-.7.4.54.54 0 0 1-.3.4c-.1.1.2.1-.3.2a3.4 3.4 0 0 1-1 .1l-.4.3-.8-.1s-.4-.3-.4-.1a1.63 1.63 0 0 1-.3.6 1.14 1.14 0 0 1-.3.8c-.1.1-1.1.7-1.1.7l-1.4.9-.3.4-.1.9-.3 1.1-.3.8-.6.8-.7 1.6-.4.5.5.5.1.3-.4.4-.3.3-.1.7-.4.6-.6.6.3.4.8.6.6.8.1.4.3.6.1.7-.4.8-.1.5.4.5a2.18 2.18 0 0 1 .5.4 4.88 4.88 0 0 1-.3.7l-.3.3-.7.7-.4.5-.3.6-.3.5-.1.4.2.5-.4.6-.2.4-.8.6-.4-.1v.2l.3 1.6.6.7v1.5l.5 2.5 1.1.8.8 1.1.6 1.4a5.36 5.36 0 0 1 .5 1.1c.1.3.3.4.3.8s.3.3.3.3a6 6 0 0 1 1.1.6 2.47 2.47 0 0 1 .4.9c.1.4.2.8.3 1.1a3 3 0 0 1-.4 1l-.9.8.2.1h.1l.3-.1.3.1.5.1.4.1.5.2v.4l.5-.1s.1-.4 0-.4a4.33 4.33 0 0 0 .5.1c.1.1.1.3.2.4s.5.2.5.2l.6-.1.7-.5.3-.6.4-.2.4-.3.3-.3v-.4c0-.2.3 0 .3 0l.4.3-.1.4c0 .1.1.2.2.3s.3 0 .4-.1.3 0 .3 0a1.38 1.38 0 0 0 .3-.4c0-.1.4.3.4.3l.4.2.4-.1.4-.3c-.1-.2-.1-.3-.2-.5s-.2-.3-.3-.5l-.4-.8.3-.4.4.1c.4.1.3.1.4.3s.3-.2.3-.3a4.33 4.33 0 0 0-.1-.5l.4-.6.6-.3.6-.2.2.3-.2.3-.3.3-.4.5-.1.6.1.6-.1.5-.2.7v.1l.3.6a4.33 4.33 0 0 1 .1.5c0 .1-.1.2-.2.3l-.2.3-.1.4.1.3.2.4 1.3.7.6.1.5.2a5.94 5.94 0 0 1 .4.8c0 .1.1.4.1.5s.3.1.4.1.1 0 .2-.1.2-.3.3-.4.4 0 .4 0h.6l.4.3.4.1.2-.3s.3-.4.2-.5.1-.5.1-.6.1-.2.2-.3a1.38 1.38 0 0 1 .4-.3 2.19 2.19 0 0 1 .5.3l.6-.1a4.33 4.33 0 0 0 .5.1c.1 0 .1.4.1.5s.1.3.2.4l.3.5h.3c.2-.1.3-.1.4-.2l.4-.3.2-.4a4 4 0 0 1 .4-.3l.1-.3a1.38 1.38 0 0 1 .3-.4l.3.4.4.4-.1.6a.5.5 0 0 1 0 .6l-.2.1-.5.1h-.6c-.1 0-.2.3-.2.4a2.27 2.27 0 0 0 .1.4l.3.3.3.3.6.3a.9.9 0 0 0 .5-.1l.5-.5.4.1.3.7v.4c0 .1-.2.3-.2.3l.1.5v.6a.35.35 0 0 1-.1.2l-.6-.3-.5-.3-.5.3-.1.3.3.4.6.3c.2.1.3.3.5.4l.1.6v.2s.1.3.2.3.2.4.2.6.2.3.2.4.3.2.3.2h-.3l.3-.2s.3-.2.3-.3.1-.3.1-.5v-.6c0-.1 0-.1.1-.2a.37.37 0 0 0 .1-.3c0-.1 0-.1.1-.2s-.1-.2-.1-.3a.37.37 0 0 0-.1-.3l-.3-.3a.49.49 0 0 1-.1-.3l.2-.3h.4l.4-.1.1-.4a1.38 1.38 0 0 0 .3-.4c0-.2.1-.3.2-.5a.78.78 0 0 1 .4-.4c.1-.1.1-.2.2-.4s-.3-.3-.3-.3l-.2-.3s-.2-.3-.3-.3-.2.3-.2.3-.2.3-.3.4a4.17 4.17 0 0 0-.2.6c0 .1-.4.1-.4.1s-.2-.1-.2-.2.1-.5.1-.6.1-.3.2-.5v-.7l.3-.3v-.7l-.2-.5a.37.37 0 0 0 .1-.3 1.38 1.38 0 0 1 .3-.4c.1-.1 0-.3 0-.3l-.1-.5.1-.1.2-.1h.8l.8-.1.4-.3.3-.3.3-.2-.3-.5-.3-.1-.5-.4-.1-.3-.4-.3-.5.2-1.1.1-.8.2c-.1.2-.2.5-.3.7s-.6.2-.7.2h-.5v-.4l.4-.3.3-.4v-.4l.5-.1s1-.2 1.1-.2a2.19 2.19 0 0 0 .5-.3l.6-.1c.2-.1.5-.2.7-.3s.2-.3.2-.4a.76.76 0 0 0-.2-.4l-.3-.6.9.1.5-.1.6-.1s.3.3.3.4.6-.2.6-.2l.8-.2.4.3.4.4c.1.1.1.4.1.4s.1.5.1.6v.4l.1.5h.1l.8-.3.4.1.3-.9c0-.2-.3-.4-.3-.4l-.6-.6-.3-.6.1-.6-.1-.4-.1-.6-.2-.4-.2-.8-.1-.6a2.51 2.51 0 0 1 .4-.7 1.38 1.38 0 0 1 .3-.4c.2-.1.4-.1.6-.2l.3.3v.4l-.1.6-.3.5v.4l.5.9.2.5h.7l.5.1.3.2s.3.4.4.5.2.3.3.4.1-.1.1-.1.1-.5.1-.6a.52.52 0 0 1 .2-.4c.1-.1.3.1.3.1s.3.3.3.4.1.3.1.5l-.1.5-.3.4.4.4h.4a.37.37 0 0 1 .3.1l.5.3c.1 0 .2-.1.3-.1l.6-.1.4.1a4 4 0 0 0 .4-.3c.1-.1.2-.1.4-.1l.1.3.3.4.2.3h.9l.3-.1.2-1.1-.5-.8-.6-.6c-.1-.1-.4-.4-.3-.5s.7.1.8 0h1.4l1.1-.3s.1-.1 0-.4-.3-1-.3-1c.1-.2.1-.3.2-.4l.4-.4a1.27 1.27 0 0 1 .6-.1c.2 0 1.8-.3 1.9-.3s.9.2.9.2l1.1-.5.3-.4.1-.2.2-.7a2.41 2.41 0 0 1 .8-.6 1.42 1.42 0 0 0 .6-.2l.1-.3.8-.4.6-.2.8-.1.3-.3.3-.3.3-1.5.5-.5h1a.35.35 0 0 0 .2.1l.8.1c.1-.2.3-.4.4-.6s.4-.5.6-.7l.3-.6-.1-.6a6 6 0 0 1-.8-.8h-.6l-.8-.6-1-1.2-.6-.9-.9-.9-2.7-1.1-.4-.5-.6-.8-.1-.3.6-.6.6-.3a2.65 2.65 0 0 0 .6-.5c0-.1-.1-1.1-.1-1.1l-.2-.6.2-.5-.1-.1-.9.9-1.2-.3-.7-.8-1.5-.1-.6.1-1 .6-.3.7h-1.7l-.7 1-1.1.3-1.9-.8-.8-.4h-1.4l-1.8-.4s-.9.4-.9 0-.7-.8-.7-.8-.8-.7-.8-.9a2.13 2.13 0 0 1 0-.8v-1a3.51 3.51 0 0 0-.5-.8s-.9.9-.9 1.3-.6.5-.6.5h-1.6a7.49 7.49 0 0 1-1.6.5c-.3 0 0 .3 0 .3l-.6-.1s-.7.1-.8 0a2.18 2.18 0 0 1-.4-.5 1.38 1.38 0 0 0-.4-.3 5.64 5.64 0 0 0-.4-1.2 11 11 0 0 0-1.8.2c-.1.1-1-.4-1-.4l-.4-.1a4.71 4.71 0 0 1-1.6.4c-.4 0 0-.3 0-.3l-.6-.4h-.8l-.6-.5.3-.3.4-.3.7-.5.6-.3v-2.1l-.3-.3a2.18 2.18 0 0 0-.5-.8c-.1-.1-.2-.2-.1-.3l-.4-.7-.4-.2a7.28 7.28 0 0 0-.7-.6c-.4-.3 0-.4 0-.4-.1-.2-.2-.5-.3-.7l-.3-.6-.8-.5a3.4 3.4 0 0 0-1 .1c-.1.1-.3-.3-.3-.3l-.9.4a5.36 5.36 0 0 1-1.1-.5 4.35 4.35 0 0 0-.6-.7l-.5-.3-.8-.2-.4-.1c-.1-.1-.1-.2-.2-.3s-.1-.4-.1-.5-.2-.2-.2-.3-.4-.1-.4-.1l-.6-.4c-.29-.11-.55-1.08-.8-.5" class="cls-2"/><path d="m108.68 169.06-.2.8-.1.5.3.3.4.4v.5l-.1.8.1.4.1.4-.2.3-.3.3v.3l-.3.2-.4.3-.1.3v.3l.3.1.3-.1.3-.4.4-.3.6.1v.4s.1.3 0 .4l-.2.2-.1.4a.35.35 0 0 1-.2.1h-.3v.4l-.2.3a.35.35 0 0 1-.2.1h-.5l-.1.4.3.3.3.2-.1.3.2.4.4.3.1.3-.1.3-.4.2-.6-.3-.3-.4-.1-.6-.4.1-.5-.1-.2.2v.6l-.1.3-.2.3-.4.1-.4.1-.2.2v.3l-.1.4.2.4.3.3-.1.2-.4.1-.3.1c0 .1-.1.2-.1.3l-.1.3v.1l-.1.2-.3.2-.3.1a.37.37 0 0 1-.3.1l-.4-.1-.4-.1a.35.35 0 0 1-.2-.1l-.1-.2v-.2l.1-.2.2-.1.4-.1.3-.1.1-.1v-.3l-.3-.1-.3-.2-.3-.1v-.2l-.1-.3.1-.2.1-.3c.1 0 .2-.1.3-.2l.2-.1.1-.1-.1-.2-.2-.1-.6-.1h-.3l-.2-.1-.1-.1v-.2l-.1-.1-.4-.1.1-.2.1-.1.2-.1.4-.1.3-.1.3-.1.1-.1.1-.1.1-.2.3-.5.2-.3s.1-.2 0-.2a.35.35 0 0 1-.2-.1v-.8l-.1-.2-.1-.1-.2.1-.2.3-.3.4-.4.3h-.7l-.2.2-.2.3-.4.3-.4-.1-.2-.4-.2-.3a2.27 2.27 0 0 1-.1-.4c-.1-.2-.1-.3-.2-.4l-.3-.4v-.9l.3-.3.1-.3.2-.3.1-.2c.1 0 .1-.1.2-.1l.1-.1.3-.2.1-.2.2-.3.1-.1h.3l.4.2.4.3.4.3h.3l.2-.1.2-.2.1-.1.1.1.2.1.2.3.1.2.3.1h.3l.3.2.1.1a.37.37 0 0 1 .3.1h.1v-.6a.37.37 0 0 0-.1-.3s0-.2-.1-.2a.35.35 0 0 1-.2-.1l-.2-.1-.1-.1-.1-.3v-.2l-.1-.3s.1-.2 0-.2-.3-.2-.3-.2l-.1-.2v-.1l.1-.1c.1 0 .1-.1.2-.1h.4l.3-.1s.1-.2.2-.2a.37.37 0 0 0 .3-.1l.4-.1h.4l.1-.1.1-.3.1-.1.3-.1.3-.1.2-.1.1-.2v-.3l-.1-.5.1-.3.2-.3.3-.3.3-.1.5-.1.5.2.4.3.1.3c0 .1 0 .1-.1.2l-.3.3ZM89.28 174.26l-1.1-.3c0 .1-.8 0-.8 0l-.4.3a.37.37 0 0 1-.1.3.37.37 0 0 0 .1.3l.1.1.3.2.8.1h.5l.3-.2.3-.2.3-.1.1-.1v-.3ZM89.78 175.26l-.3.3-.1.2-.1.3v.9l.2.2h.2l.3-.1.2-.1h.3l.4-.1v-.5l-.1-.3-.3-.3-.3-.2-.1-.3H89.78zM81.78 173.16l.2-.1v-.5l.3-.4h.4l.2.2.3.2.2.2.3.1.1.1v.2l-.2.4-.1.3v.2l.1.2.3.3.1.2v.2h-.3l-.2.1-.4-.3-.6-.3-.2-.2-.5-.1-.5.1h-.7l-.4-.2h-.3l-.2-.4-.1-.3v-.2l.1-.4.3-.3.3-.4.4-.2.3-.2v-.3l.4-.4.3-.2.5-.1h.2v.4l-.3.3-.2.4-.2.4-.1.4v.4l.2.2z" class="cls-2"/><path d="M74.38 175.56v.4l.1.4.2.3.3.2.1.2-.1.2-.3.3-.3.2-.1.2-.1.2.3.2.2.1.4.2v.2l.1.3.1.3.3.1.3-.1h.5l.3-.1.3-.1.3-.3v-.4l-.1-.3-.1-.4.1-.2.2-.1.5-.1.3-.2h.5l.1.3v.2a.37.37 0 0 0-.1.3.37.37 0 0 1-.1.3l-.1.4v.1l-.1.3.1.1.1.1.1.3v.3l.1.3.6.1.6.2.4-.1.3.1.3-.2a.35.35 0 0 0 .2.1c.1 0 .1.3.1.3h.4l.4.1h.2l.1-.3-.1-.4-.2-.2-.1-.3v-.3l.1-.1.3-.3.2-.1.1-.1v-.6l-.1-.6v-.3l.1-.3.1-.4s-.1-.3 0-.3.2-.2.2-.2l.2-.1.1-.3-.1-.3-.3-.1-.3-.1-.3-.2-.2-.1h-.6l-.4-.1-.3-.2h-.4l-.3.3-.4.3-.3.2v.2l-.4-.1-.1-.3-.3-.4-.1-.2-.1-.3-.3-.1-.3-.1-.1-.1c0-.1-.1-.1-.1-.2a.37.37 0 0 0-.1-.3v-.1c0-.1-.2-.2-.2-.2l-.1-.2-.1-.3-.1-.4.2-.3.1-.3.4-.1.2-.1.1-.1.1-.2.1-.3.1-.1.2-.3v-.2l-.1-.3-.1-.4.1-.4-.6-.4h-.9l-.5.1-.4.3-.3.4-.1.3-.1.4v.2l-.4.1-.3.1-.2.3a.14.14 0 0 1 0 .2l-.3.3v.4l-.1.3-.2.1-.3.1-.1.3v.4l.1.3-.1.4.1.4.1.5Z" class="cls-2"/></g><path id="AC4" d="m103.65 137.23.3-.4.3-.6.3-.7.4-.3a6.89 6.89 0 0 0 .8-.3.49.49 0 0 1 .3-.1l.7.1.5.1v1l.8.3.5-.1.7-.1.7-.4.3-.5c0-.1.1-.3.1-.4a.37.37 0 0 1 .1-.3.6.6 0 0 0 .1-.4v-.5c0-.2-.1-.4-.1-.6s.1-.3.1-.3a2.09 2.09 0 0 0 .4-.6c0-.1.3-.2.3-.2a.35.35 0 0 0 .1-.2c0-.1 0-.3-.1-.3s.1-.2.1-.2a2.27 2.27 0 0 0 .1-.4v-.3c0-.1.3-.1.5-.2s.1-.1.1-.3a.52.52 0 0 0-.2-.4c-.1-.1.4-.1.4-.1l.7.1c.1 0 .1-.3.1-.3a1 1 0 0 0 .1-.3v-.3c0-.1.5-.3.6-.4s0-.2 0-.3v-1c0-.1-.1-.2-.1-.3s-.2-.3-.3-.4 0-.2 0-.3.1-.3.1-.5.1-.2.1-.3.1-.2.1-.3l-.3-.6c-.2-.3-.1-.2-.1-.3v-.4c0-.2 0-.3-.1-.4a.6.6 0 0 1-.1-.4c-.3-.1-.7-.3-1-.4a2.09 2.09 0 0 1-.6-.4l-.8.3a4.17 4.17 0 0 1-.6.2c-.1 0-.1-.1-.4-.2s-.2 0-.2 0a.37.37 0 0 0-.3.1 1.38 1.38 0 0 0-.4.3l-.7.3H108l-.5.3-.5.3h-.8c-.1-.1-.1 0-.3-.3s-.1 0-.1 0l-.3.3a2.27 2.27 0 0 0-.1.4c0 .1-.1.3-.1.4s.1.6.1.8v.5l-.1.3-.4.4c-.3.3-.3.2-.3.2l-.4.1-.2.2-.3.3c-.1 0-.1-.1-.2-.1a1.69 1.69 0 0 1-.5-.2c-.2-.1-.2-.3-.3-.3s0-.1.1-.3.1-.2.2-.3 0-.3 0-.4-.1-.2-.1-.3-.4-.2-.4-.4-.1 0-.3-.2-.1.1-.1.1l-.7.1c-.1 0-.2.1-.3.1a2.19 2.19 0 0 1-.5.3 1.42 1.42 0 0 1-.2.6c-.1.1-.1.2-.1.4a4.33 4.33 0 0 1-.1.5l-.6.9-.3.3a1.38 1.38 0 0 1-.3.4c0 .1-.1.2-.1.3a.1.1 0 0 0 .1.1 1.27 1.27 0 0 0 .6.1c.3 0 .4.2.6.2s.5.1.7.1.6.1.9.2.3.3.5.4.1.5.1.5l-.1.3c-.1.1-.3.2-.4.3s-.1 0-.1 0h-1.4a.6.6 0 0 0-.4.1c-.3 0-.1.2-.1.2l-.4.7-.5.6c-.1.2-.2.3-.3.5s-.1.4-.1.4.1.2.2.3a3 3 0 0 0 .8.8c.1.2.3.3.4.4s.1.5.1.7v.3l-.9.3a.37.37 0 0 1-.3-.1.76.76 0 0 1-.4-.2c-.1-.1-.3-.2-.4-.3s-.4 0-.5 0h-.3l-.4.5v.1a6.89 6.89 0 0 1 .3.8.55.55 0 0 0 .3.5c.1.1.2.3.3.4a3.11 3.11 0 0 0 .4.6l.2.5-.3.8h.76a3 3 0 0 1 1.42-.58l1.52-.22s1 0 1-.43.85-1.37.85-1.37Z" class="cls-2" transform="translate(.68 -.24)"/><path id="AC37" d="m80.53 119.29.07 1c.2.2.3.4.5.6 0 .2.1.3.1.5a3.93 3.93 0 0 1 .2.6c0 .1.12.62.12.62s-.19.45-.39.55l-.22.16c-.1.1-.19 0-.29.12l-.36.22-.06.41-.24.31a.68.68 0 0 0-.36.11c-.1.1-.2.2-.3.2s-.1.2-.1.2-.1.2-.2.3-.1.3-.2.4l-.6.6a2.51 2.51 0 0 0-.7.4c0 .2-.1.3-.3.4s.13.12-.37.22a2.93 2.93 0 0 1-.93.08l-.41.21-.89-.11s-.3-.2-.3 0a1.63 1.63 0 0 1-.3.6 1.14 1.14 0 0 1-.3.8c-.1.1-1.16.74-1.16.74l-1.44.86-.3.4-.1.9-.3 1.1-.3.8-.6.8-.7 1.6-.4.5.6.5.1.3-.4.4-.3.3-.1.7-.4.6-.6.6.3.4.8.6.6.8.1.4.3.6.1.7-.4.8-.1.5.4.5a2.18 2.18 0 0 1 .5.4 4.88 4.88 0 0 1-.3.7l-.3.3-.7.7-.4.5-.3.6-.3.5-.1.4.2.5-.4.6-.2.4-.8.5-.4-.1-1.2-.9-.9-.9-.7-.8h-1l-.8.1-.8.1-.4.4-.5.9-.3.6a1.7 1.7 0 0 1-.7.1c-.1-.1-.8-.6-.8-.6l-.8.1-1.1.5-.8-.4-1.5-.4v-.8l-.9-.4-.2.6-.1.3-.4-.3-.6-.1v-.5l-.3-.1-.8.6-1.2.6-1.1.3-.4-.4c-.2 0-.5-.1-.7-.1a.78.78 0 0 1-.4-.4c-.1-.1-.4-.4-.2-.5s.3-.3.4-.4a.37.37 0 0 1 .3-.1l.3-.5s.1-.4 0-.5a6.31 6.31 0 0 1-.4-.9s-.3-.4-.3-.3-.3 0-.3 0v-.3c.1-.2.2-.3.3-.5l.2-.2.1-.4c-.1-.1-.1-.2-.2-.4a4.33 4.33 0 0 0-.1-.5l-.2-.3s.1-.3 0-.4l-.3-.3s-.1-.3-.4-.1a8.74 8.74 0 0 0-1 .8l-.3.3v.2l-.1.2-.2.3s.1.1 0 .3-.2.3-.3.5l-.4.2c-.2-.1-.4-.1-.6-.2a4.35 4.35 0 0 1-.7-.4l-.6-.3a4.33 4.33 0 0 1-.1-.5c-.1-.2-.1-.3-.2-.5a.9.9 0 0 0-.1-.5c-.1-.1-.1-.3-.3-.4l-.2-.1-.4-.2-1.1-.5-.5-.6-.6-.29-.5.6a.37.37 0 0 1-.3.1 2.77 2.77 0 0 0-.9-.1 1 1 0 0 1-.5.4c-.2.1-.4.3-.3.4.1.3.1.5.2.8 0 0 .3-.1.1.2s.1.3-.3.6a1.21 1.21 0 0 0-.5.5l-.9.6s-.1-.1 0 .3a4.54 4.54 0 0 0 .3.8l-.8.3s0 .1-.3.1a2.19 2.19 0 0 0-.8.3s-.9-.2-.9-.1.2.8 0 1-.5.2-.7.3a1.7 1.7 0 0 1-.7-.1c-.2-.1-.4-.4-.6-.5l-.5-.2s-.8.1-.7.3a4.35 4.35 0 0 0 .4.7c.1.1.1.4.1.4s.1.1-.1.1h-.6l-.6-.4a.9.9 0 0 0-.5-.1l-.2.1s-.3.3-.3-.3v-1.4c0-.1.3-.6 0-.8a4.91 4.91 0 0 0-1-.4s-.1 0 0-.1.1-.2.1-.4l-.1-.6.1-.7s.1 0-.1-.3a5.55 5.55 0 0 0-.8-.6l-.2-.1-1-.2.3-.2.3-.3a1.38 1.38 0 0 1 .3-.4 4 4 0 0 0 .3-.4.49.49 0 0 1 .1-.3c.1-.1.1-.2.2-.4l.2-.4.1-.3.1-.1.1-.2.2-.3.3-.3.1-.2h.6l.2-.1s-.1 0 .2-.3a1.38 1.38 0 0 0 .3-.4l.3-.1.1.1.5.2h.3a1.38 1.38 0 0 0 .4-.3 3.29 3.29 0 0 1 .6-.3h.3c.1 0 .7.1.7.1h.3s.1.1.1 0a1.38 1.38 0 0 1 .3-.4c0-.1.1-.1.1-.2l.3-.3.4-.2.4.3.2.4a.52.52 0 0 0 .2.4c.1.1 0 .1.1.1a.6.6 0 0 0 .4-.1l.1-.3v-.3c0-.3.1-.4 0-.5a.37.37 0 0 1-.1-.3c0-.1-.1-.2-.2-.3s-.3-.1-.4-.2l-.3-.3c-.1-.1-.1-.2-.2-.3a.37.37 0 0 0-.3-.1.6.6 0 0 0-.4.1s-.1-.1-.3 0a1.88 1.88 0 0 1-.8.2h-.5l-.8-.1s.3-.1-.1-.1-.4 0-.6.1-.1-.1-.3.1a1.42 1.42 0 0 1-.6.2s.1.2-.2.1c-.1-.1-.3-.1-.4-.2l-.6-.2-.1-.2v-.3l-.1-.1-.6-.3a.37.37 0 0 1-.1-.3v-.3c0-.1.1-.1.1-.2s.1-.2.1-.3v-.3a.6.6 0 0 1 .1-.4c.1-.1-.1-.2.1-.3l.6-.3c.1 0 .1-.1.3-.1a1.42 1.42 0 0 0 .6-.2c.1-.1.2-.4.3-.5l.4-.4s0-.1.3-.3.4-.3.6-.3.3-.1.4-.1l.7-.2.1-.1.6-.3.3-.1.4-.6c0-.1.1-.1.1-.2a1.44 1.44 0 0 0 .2-.3l.4-.8.5-.6-.3-.8.1-.4a.35.35 0 0 1 .2-.1l.7.1.5.2h.5a5.38 5.38 0 0 1 .8.1l.8.1c.2 0 .3 0 .4.1s.3.2.4.3.3.4.4.5.3.2.4.3.3.2.4.3c.1-.2.1-.3.2-.5a.37.37 0 0 0-.1-.3v-.8c0-.1.3-.2 0-.3a1.34 1.34 0 0 0-.5-.1c-.1 0-.6-.1-.6-.1l-.6-.3a1.38 1.38 0 0 1-.3-.4l-.3-.3c0-.2-.1-.3-.3-.4a1.38 1.38 0 0 1-.4-.3v-.3l.1-.2.4-.2.7-.2.3-.1a.6.6 0 0 1 .4-.1h.9a.52.52 0 0 1 .4.2c.3.1.1.1.3.1h.6l.1-.1.1-.2s-.1-.1.1-.4.1-.3.2-.4l.2-.1.3-.3.3-.5s-.1-.1-.5-.1-.7.1-1.1.1l-.3.1-1.1.6-.8-.2-.4-.1-.2.1s-.3-.4-.4-.4h-.6l-.1.3-.8.6v-.3l-1.3-.4h-.7l.1-.2.1-.6.1-.4v-1.8l-.4-.3h-.7l-.6-.4.1-.4s0-.4.3-.4a1.7 1.7 0 0 0 .7-.1.76.76 0 0 1 .4.1c.1 0 .3.1.4.1s0-.1.2.1a1.27 1.27 0 0 0 .6.1h.4l.7-.1c.1 0 .2-.1.3-.1h.8l.7-.2.1-.3v-.1h.7l.3-.1s.2-.2.2-.3v-.1l.3-.3a1 1 0 0 0 .5-.4c.1-.1.4-.1.4-.3s.4-.1.4-.1h.4l.6-.1.1-.1.5-.2s.3 0 .4-.1.4-.1.6-.2a1.38 1.38 0 0 0 .4-.3c.1-.1.2-.1.3-.2s.2-.3.3-.4 0-.2-.1-.4 0-.3 0-.5.1-.3.1-.4a.52.52 0 0 1 .2-.4c.1-.1.3-.3.2-.5s.2-.3.3-.6.8-.1.8-.1a1.27 1.27 0 0 1 .6-.1c.2 0 .3-.1.8-.3s.4-.1.4-.1l.7.5.2.1s.5.1.6.1.4-.3.5-.3.2.1.3.2.2.3.3.4 0 .3 0 .3l.9-.3.5.5a1.85 1.85 0 0 1 0 .74c-.1 0 .48.37.48.47.18.27-.18.84-.15.89s.1.3 0 .4v.3h.9c.1 0 .2.1.3.2s.3.2.4.3.2.3.2.3l.1-.1.2-.2v-.4c0-.1.2-.1.4-.2s.2.1.4.2l.2.1a3.21 3.21 0 0 0 .5-.3l.3-.3c.1-.1.1.1.1.1l.7.3.4-.3a3 3 0 0 1 .8.4c.2 0 .3.1.5.1s.3-.3.5-.4a1.47 1.47 0 0 1 .2-.4h.4c.3-.1.6-.1.8-.3l.1-.1.1-.2c.1 0 .2.1.3.1s.1.1.2.1l.3-.1.5-.2.4.5.3.4-.1.6v.7c.1.2.2.3.3.5l.3.6a2.27 2.27 0 0 1 .1.4c0 .2-.1.3-.1.5v.3s.5.4.5.5v.3l1 .1.6-.4.3.3a2.19 2.19 0 0 1 .3.5c0 .1.1.2.1.3s.5.4.5.6v.2l.8.1.5.1.6-.1s.6-.1.7-.3 0-.12.1-.32-.06-.32-.06-.52.06-.36 0-.46l.3-.3c.1-.1 0-.06 0-.16h.55l.12.23.08.24a2.53 2.53 0 0 0 .52.25c.1 0 .59-.13.59.17l.09.68c0 .2.34.36.44.26a2.17 2.17 0 0 0 .4-.62c.1-.3 0-.21.06-.41s.3-.2.3-.3.17-.1.17-.2l-.07-.2-.11-.26c.14-.1-.29 0-.16-.17s-.13-.27-.23-.37.3-.3.3-.3l.3-.3c0-.1.1-.2.1-.3a1.7 1.7 0 0 0 .7-.1c.1-.1.3.2.3.2.1.2.1.3.2.5v.2c0 .1.2.1.2.2s.3.1.4.1 0-.2 0-.2l.2-.4c.1-.2.3-.3.4-.3a2.27 2.27 0 0 1 .4.1c.1.1.1.2.2.4l.3.6.6.6a1.7 1.7 0 0 0 .7-.1c.3-.1.4.3.5.4s.4.3.4.4.3 0 .3 0c.2 0 .5-.1.7-.1a.9.9 0 0 1 .5-.1l.6-.4h.6l.7.1.19 1.12" class="cls-2" transform="translate(.68 -.24)"/><g id="AC38"><path d="M66.68 151.18v.64l.86 1.66v1.28l.12 1.51.41 1.5 1.2.72 1 1.79.73 1.63c.2.4.15.67.35 1.07-.22-.18.51.28.68.37s.63 0 .67.26c.41.27.58.65.4.9.17.49-.07.35.09.5a1.82 1.82 0 0 1-.33 1.71 2.29 2.29 0 0 1-.49.83l-.9.8h0l-.4.1s-.1-.4-.2-.3a4 4 0 0 1-.4.3l-.3.4-.1.3-.3.3-.4.1-.5.1-.3.4-.1.3-.2.3-.3.2-.6-.1-.6-.3s-.4-.1-.4-.2-.2-.3-.3-.5l-.3-.6-.3.2-.4.1a.52.52 0 0 0-.2.4c0 .1-.1.3-.1.4s-.2.4-.2.5-.1.4-.1.5.2.3.3.4l.2.4.3.4s.1.4.2.4l.6.3.3.2.1.3v.3a.37.37 0 0 1-.1.3l.1.1.3.2h.91l.6-.2.6-.3.4-.6 1.1.2.4.2.6-.3.4-.1.2.2c0 .2-.1.4-.1.6s-.2.5-.3.8v.4c-.1.2-.1.3-.2.5s-.4.1-.4.2v.4a.37.37 0 0 1-.1.3l-.3.3-.1.2v.4c0 .1-.1.8-.1.8l-.6.3s-.3.3-.3.4-.4.2-.4.2c-.2 0-.4-.1-.6-.1s-.6-.4-.6-.6-.5-.6-.5-.6-.1.2-.1.3a1.38 1.38 0 0 1-.4.3l-.1.3-.5.1v.4a.37.37 0 0 0-.1.3c0 .1 0 .1-.1.2s-.3.2-.3.3-.1.2-.1.3-.1.1-.1.2v.6l-.3.3.1.3s.3.3.3.4l.2.2a2.27 2.27 0 0 0-.1.4c0 .1.3.5.2.6a1.38 1.38 0 0 1-.4.3c-.1 0-.6-.1-.6-.1-.1-.2-.3-.4-.4-.6a3.63 3.63 0 0 0-.7-.3l-.6.2c-.1-.1-.2-.1-.3-.3a4.71 4.71 0 0 1-.3-.9l.1-.8.4-.6.3-.3c.1-.1.1-.1.1-.3l-.3-.5-.1-.4.3-.3.5-.3.4-.5a2.27 2.27 0 0 1-.1-.4 1.38 1.38 0 0 0-.3-.4l-.2-.4-.1-.3v-.2l-.1-.4-.4-.4c-.1-.1-.2-.1-.3-.2s-.3-.2-.5-.3v-.4a4.33 4.33 0 0 1 .1-.5l.1-.3-.1-.6-.3-.6-.3-.3c0-.1-.1-.2-.1-.3l-.4.1-.3.1a.37.37 0 0 1-.1.3c0 .1 0 .4.1.4s.1.3.1.3l.1.2-.3.1-.6.2s-.3-.1-.4 0l-.3.3-.2.1-.4-.3a.37.37 0 0 0-.3.1.37.37 0 0 1-.3.1l-.4.1-.6-.1s-.4 0-.4.1-.1.2-.1.3-.1.2.1.3.3.3.4.3.3.1.5.2l.1.2-.1.2-.3.1a.6.6 0 0 1-.4.1c-.1.1-.2.1-.3.2s-.5.4-.4.4.1.3.1.3l.2.2a.37.37 0 0 0 .3.1c0 .1.1.1.1.2s.1.1.1.2.1.1-.1.2l-.3.1-.3.1s0-.1-.1 0-.1 0-.1.1-.1.2-.1.3a.37.37 0 0 1-.1.3v.1a4.33 4.33 0 0 1-.1.5s-.1.3 0 .3.1.3.1.3l.4.3a1.42 1.42 0 0 1 .4.2 1.38 1.38 0 0 0 .4.3l.3.4.3.4.2.3.3-.1.1-.1s.3-.1.3 0 .3.3.3.3a.35.35 0 0 1 .1.2.1.1 0 0 0 .1.1v.2c0 .1 0 .1.1.2s.1.3.2.3.3.2.3.2l.1.1v.2l-.2.2-.1.2.1.2.3.3.2.2a.37.37 0 0 1 .1.3l.1.4v.3a.37.37 0 0 1-.1.3v.3l-.3.2-.6.2-.3-.3-.3-.3s-.2-.1-.3 0a1.42 1.42 0 0 1-.4.2c-.1 0-.2-.1-.3-.1s-.3-.1-.5-.2a1.38 1.38 0 0 0-.4-.3h-.4l-.3.1-.2.3v.8l.3.1.6.3c.2.1.3.1.5.2a.1.1 0 0 1 .1.1h0v.3l-.1.3-.2.3a.37.37 0 0 1-.1.3l-.3.3-.3.2-.3.1-.3.3-.5.1-.3.5-.1.3s-.3.2-.3.3-.1.3 0 .3 0 .4 0 .4l-.3.1a4.33 4.33 0 0 0-.5-.1c-.1 0-.4-.1-.5-.1s-.3-.1-.3.1-.1.3-.1.4v.3c0 .1-.3.3-.3.3v-1.5l-.3-.1a1.47 1.47 0 0 1-.2-.4c0-.1 0-.5-.1-.6s-.2-.3-.3-.3-.3-.1-.4-.1a.1.1 0 0 1-.1-.1v-.4c0-.2-.1-.5-.1-.6l-.3-.6a.37.37 0 0 0-.3-.2 2 2 0 0 1-.5-.1c-.1-.1-.2-.1-.3-.2s-.3-.2-.4-.3h-.3l-.4-.1c-.2-.1-.4-.3-.6-.4a.37.37 0 0 0-.3.1c-.1.1-.2.1-.4.2s-.2.1-.3.1h-.4a.52.52 0 0 1-.4-.2l-.3-.3a.76.76 0 0 0-.2-.4c-.1-.1-.4-.2-.4-.3s.1-.6.1-.6l.2-.3.6-.3.4-.3.3-.6.3-.3.3-.1.1-.1.1-.3.5-.7.4-.4s.1-.1.2.1a.76.76 0 0 1 .2.5.37.37 0 0 1-.1.3l-.1.4-.1.3v.4l.1.3a.37.37 0 0 0 .3.2c.2 0 .3-.2.4-.2s.3 0 .3-.1.2-.2.2-.2l.3-.6c.1 0 .3-.5.3-.5l.1-.5v-.4l-.2-.2-.3-.4v-.4c0-.1.1-.6.1-.6l.2-.2c.1-.1.1-.2.2-.3s.1-.6.1-.6l.3-.4.5-.3.3.1s.2.1.2.2a2.27 2.27 0 0 0 .1.4l.1.5v.7l.1.3s.1.2.2.2a1.27 1.27 0 0 0 .6-.1c.1-.1.6-.1.6-.2s.3-.3.3-.3l.2-.6.1-.6.1-.4v-.3l-.1-.5-.3-.5-.3-.3h-.5l-.3.4-.4.1-.5-.1-.3-.1-.3-.6-.3-.1-.5-.1-.6.4-.2.3-.3.9-.2.6a.37.37 0 0 0-.1.3c0 .1-.3.3-.3.3l-.5.3-.3.2-.6-.1-.6-.2a1.47 1.47 0 0 0-.4-.2c-.1 0-.4.2-.5.2s-.3.3-.5.4l-.3.3-.7.1a1.33 1.33 0 0 0-.5.3 3.21 3.21 0 0 1-.5.3l-.1.4-.2.2-.3.2-.3.2-.6.1a.37.37 0 0 0-.3.1c-.1 0-.2.1-.3.1l-.4.1-.2.2-.1.2a.14.14 0 0 0 0 .2l.1.1.1.3-.1.3s-.2.2-.2.3a.35.35 0 0 1-.1.2s-.2.1-.2.2-.1.3-.2.4v.2l.1.3.1.1.2.1v.1l-.3.6c0 .1-.3.2-.3.2h-.3c-.1 0-.1 0-.2.1s-.2.1-.3.1l-.1.2v.1l.1.3v.3c0 .1 0 .1-.1.2l-.1.2v.1l.1.3.1.2.1.2v.3l-.1.3-.3.1h-.2c-.1 0-.2-.1-.3-.1s-.2-.2-.2-.1-.1.2-.1.3 0 .1-.1.2a.37.37 0 0 0-.1.3.37.37 0 0 1-.1.3c0 .1-.3.2-.3.2h-.3l-.4-.3a.35.35 0 0 0-.2-.1.37.37 0 0 1-.3-.1h-.1l-.5-.1-.4.1a.37.37 0 0 0-.1.3v.4l-.1.3s-.3 0-.3-.1-.5-.1-.5-.2-.3-.2-.3-.3-.1-.4-.3-.4a.6.6 0 0 1-.4-.1l-.6-.1a1.47 1.47 0 0 1-.2-.4.45.45 0 0 0-.3-.3.43.43 0 0 1-.4-.4h0v-.39l.3-.6.1-.6.1-.9.1-.5.3-1.2v-.8l-.2-.6-.2-.6s.1-.2 0-.3l-.3-.3-.4.3-.4.3v.4c0 .1.2.8.2.8l-.1 1 .2 1.6-.1.3-.3.4-.3.6c-.1.1-.2.1-.3.2s-.1.2-.2.4l-.3.2-.8.1h-.5s-.3.1-.3.2.1.3.1.4l.3.3.1.3v.3l-.1.1-.6-.1-.3-.2-.1.2-.1.2.1.4a.37.37 0 0 1-.3.1l-.4-.1-.3.1-.6.4.4.1-.1.3h-.3l-.2.3-.3.2.1.4-.1.1.1.4-.3.2-.2.3-.3.3-.2.3s-.2.2-.2.3-.1.1-.1.2a.37.37 0 0 0 .1.3l-.1.3-.4.1a.6.6 0 0 1-.4-.1c-.1-.1-.2-.2-.3-.2s-.4 0-.4.1-.2.3-.2.3l-.3.1-.4-.1-.3-.1-.1-.5c0-.2.1-.4.1-.6a1.7 1.7 0 0 0 .1-.7l.1-.3-.3-.3-.6-.1-.8-.1-.3-.3.1-.4.4-.4a1.38 1.38 0 0 0 .4-.3l.3-.6.3-.3.4-.4.1-.4-.1-.3h-.4a2.35 2.35 0 0 1-.8-.2l-.3-.4v-.3l.1-.3.1-.2.1-.2v-.1l-.2-.6v-.4c.1-.1.1-.2.1-.4l.1-.2.1-.3s.1-.1-.1-.3l-.4-.4c-.1-.1-.2-.3-.3-.4l-.3-.3-.1-.3a1.38 1.38 0 0 1-.3-.4c0-.1-.3-.3-.3-.3l-.2.3-.1.3-.4.1-.4.1-.3.1-.2-.3s-.1 0-.1-.2a.6.6 0 0 1 .1-.4l-.4-.6-.9-.4-.6.2-.3-.4-.4-.6-.3-.3-.3-.4v-.6a.6.6 0 0 0 .1-.4v-.2c0-.1-.4-.4-.4-.4l-.3-.2s-.3-.1-.3-.2-.1-.5 0-.5.1-.4.1-.4v-.6l-.2-.3.1-.2.3-.8c.1-.1.2-.1.4-.2l.4-.1v-1.1l.4-1s.5.1.6.3l.3.6c.1.3.3.7.4.7a4.87 4.87 0 0 1 .4 1.1l-.1.5v.6c0 .2-.1.4-.1.6a5.55 5.55 0 0 1 .6.8c0 .1.1.2.1.4s.1.4.3.5a4.7 4.7 0 0 0 .6.9c.1.1.3.1.4.2s.3.2.4.3l.4.3.3.2s.5-.1.4-.3-.1-.3-.2-.5l-.2-.2c0-.2-.1-.3-.1-.5s-.2-.2-.2-.3-.1-.3-.1-.5l-.3-.2-.2-.1-.2.1s-.3 0-.3-.1-.1-.2-.1-.3-.2-.2-.3-.4a.78.78 0 0 0-.4-.4v-.4l.1-.5v-.6c0-.1.1-.3.1-.4s-.3-.3.2-.3.7-.1.9.1a2.09 2.09 0 0 0 .6.4 2.09 2.09 0 0 1 .6.4 1.42 1.42 0 0 0 .6.2c.1 0 .8.1.8.2s.2.1.3.6a1.88 1.88 0 0 0 .2.8 4 4 0 0 1 .3.4c.1.1.1.2.1.4s.2.3.2.3l.3-.8v-.4s-.2-.4.3 0 .5.6.5.6a.44.44 0 0 0 .3.1 1.27 1.27 0 0 1 .6-.1l.1-.1v-.3l-.4-.3-.7-.5-.3-.4-.4-.5-.3-.5-.4-.2-.3-.1c-.1 0-.6-.1-.6-.1l-.5-.1-.4-.3a3.39 3.39 0 0 0-.8-.3 1.63 1.63 0 0 1-.6-.3l-.4-.2-.4-.2-.3-.3.1-.4v-.3c.1-.1.2-.3.3-.4l.3-.2v-.9a4.33 4.33 0 0 0-.1-.5s-.1-.1.1-.3a2.88 2.88 0 0 0 .4-.6l.3-.2.3-.3.4-.3.1-.4v-.2c0-.1-.1-.3-.1-.4l-.2-.9c0-.1.1-.3.1-.4s.1-.6.1-.6v-.8l-.1-.4v-.3l.1-.4v.3a.9.9 0 0 0-.1-.5l-.2-.4-.1-.2-.1.1-.3.1a.1.1 0 0 0-.1.1h0c0 .1-.1.3-.1.4s-.1.3-.1.4a4.33 4.33 0 0 0-.1.5v.5a.37.37 0 0 1-.1.3.77.77 0 0 0-.3.1c-.1.1-.2.1-.4.1l-.4-.2-.1-.4-.3-.3h-.3c-.1 0-.3.1-.4.1l-.1-.3a.37.37 0 0 1 .1-.3c.1-.1.2-.3.3-.4l-.1-.3-.1-.4.1-.2s-.1-.2.1-.2h.6c.1 0 .3.1.4.1l.3-.1.3-.4-.2-.5.1-.3a.37.37 0 0 1 .3-.1c.2 0-.1-.1.5-.3a2.35 2.35 0 0 0 .8-.2v-.1h0l.3-.3.1-.5-.5-.2-.6-.3-.2-.4s-.4-.3-.4-.4.4-.4.4-.4l.8-.1h.2c.1 0 .5.1.6.1a.9.9 0 0 1 .5.1c.2.1.3.3.5.4v.4a.1.1 0 0 1-.1.1l-.1.4.4.6h.3c0-.2.1-.3.1-.5s.2-.3.3-.5l.4-.2a1 1 0 0 0 .4-.5l-.3-.3s-.1-.2 0-.3a1.44 1.44 0 0 0 .2-.3c0-.1.1-.1.1-.2s-.1-.4-.3-.4a.9.9 0 0 0-.5.1s-.6-.1-.6-.3a3.54 3.54 0 0 0-.1-.6c0-.2-.1-.3-.1-.4l-.4-.4-.2-.2c-.1-.1-.2-.1-.2-.2a.37.37 0 0 0-.1-.3l-.3-.6-.1-.3-.3-.3-.1-.2a.14.14 0 0 1 0-.2c.1-.1.1-.2.2-.3s.2-.1.3-.2l.3-.3a2.27 2.27 0 0 0 .1-.4c0-.1-.1-.2-.1-.3h-.7l-.5-.3-.2-.1-.8.1-.2-.1.1-.6.1-.8.4-.2.4.1c0-.1 0-.1.1-.1a.37.37 0 0 0 .1-.3v-.8l.2-.3.2-.1.3-.1.6-.1a.1.1 0 0 1 .1-.1.45.45 0 0 0 .3-.3.6.6 0 0 1 .1-.4c.1-.1.1-.2.2-.3a.75.75 0 0 0 .1-.5s0-.3.1-.4a4.33 4.33 0 0 0 .1-.5c0-.1.1-.2.1-.3a4 4 0 0 0 .3-.4l.3-.3.1-.1.3-.1.3.1c.1.1.2.1.4.2s.1.2.3.1l.4-.2s.1-.2 0-.3l-.6-.3a.1.1 0 0 1-.1-.1 12362528204837.71 12362528204837.71 0 0 0-.2-.6l-.2-.3.1-.6.4-.3.3-.3.3-.3.9.2.2.1c.3.2.5.4.8.6s.1.3.1.3l-.1.7.1.6c0 .1-.1.3-.1.4v.1l1 .4c.3.1 0 .6 0 .8v1.4c-.1.5.3.3.3.3l.2-.1a.9.9 0 0 1 .5.1l.6.4h.6c.3-.1.1-.1.1-.1s.1-.4-.1-.4-.3-.5-.4-.7.7-.3.7-.3a4.71 4.71 0 0 1 .5.2c.2.1.4.4.6.5a1.7 1.7 0 0 0 .7.1c.2-.1.5-.1.7-.3s0-.8 0-.9.9.1.9.1.6-.2.8-.3a.77.77 0 0 1 .3-.1l.8-.3a4.42 4.42 0 0 0-.3-.8c-.2-.4 0-.3 0-.3l.9-.6.5-.5c.4-.3.1-.3.3-.6s-.1-.2-.1-.2a1.88 1.88 0 0 0-.2-.8c-.1-.1.1-.3.3-.4a2.18 2.18 0 0 0 .5-.4c.3 0 .6.1.9.1a.37.37 0 0 0 .3-.1l.5-.6.6.3.5.6 1.1.5.4.2.2.1a1.38 1.38 0 0 1 .3.4.9.9 0 0 1 .1.5c.1.2.1.3.2.5a4.33 4.33 0 0 0 .1.5l.6.3a1.61 1.61 0 0 0 .7.4 1.42 1.42 0 0 1 .6.2l.4-.2c.1-.2.2-.3.3-.5s0-.3 0-.3l.2-.3.1-.2v-.2l.3-.3a7 7 0 0 1 1-.8c.3-.2.4.1.4.1l.3.3c.1.1 0 .5 0 .5l.2.3a4.33 4.33 0 0 1 .1.5.76.76 0 0 0 .2.4l-.1.4-.2.2c-.1.2-.2.3-.3.5v.3s.2.1.3 0 .3.3.3.3a10.37 10.37 0 0 1 .4 1v.5l-.3.5c-.1 0-.2.1-.3.1s-.2.3-.4.4.1.4.2.5l.4.4a1.7 1.7 0 0 0 .7.1l.4.4a6.15 6.15 0 0 0 1.1-.3l1.2-.7.8-.6.3.1v.5l.6.1.4.3.1-.3.2-.6.9.4v.8l1.5.4.8.4 1.1-.5.8-.1a5.55 5.55 0 0 0 .8.6c.1 0 .7-.1.7-.1l.3-.6.5-.9.4-.4.8-.1.8-.1h1l.7.8 1 1Z" class="cls-2"/><path d="M16.25 158.3a.32.32 0 0 1-.3-.3l-.2-.6a1.23 1.23 0 0 1-.2-.5 1.27 1.27 0 0 0-.1-.6s-.3-.2 0-.3a3.51 3.51 0 0 0 .8-.5h.3a.49.49 0 0 0 .1.3 4 4 0 0 0 .4.3c.1 0 .2.1.3.1s-.1-.1.1 0 .2.1.3.3c0 0 .3 0 .4-.1a.37.37 0 0 0 .1-.3l.3-.2.3-.1s.1-.1.1 0 .1 0 .1.3.1.3 0 .4l-.3.3c-.1.1-.3.2-.3.3v.3l-.1.3c0 .1.1.2.1.3s.2.2.1.3l-.4.2-.7.1-.1-.1s-.3-.1-.1.1.2.1.3.3.1.1.1.2-.4.3-.4.3l-.8.2s-.6-.1-.4-.3l.3-.4ZM14.55 158a.37.37 0 0 0 .3-.1c.1 0 .3-.2.3-.2a.14.14 0 0 0 0-.2.77.77 0 0 0-.3-.2.76.76 0 0 0-.4-.2l-.6-.3-.4-.3c-.2-.1-.7.3-.7.3s.3-.1 0 .2a2.65 2.65 0 0 1-.6.5v.3c.1.1 0 .3.1.4s0 .1.2.3.1.4.3.4.1-.1.3 0 .3.1.5.2.3.2.5.3.4.2.4.3-.1.1 0 .1 0 .1.1.4a3 3 0 0 0 .5.7s-.2.2.1.1.5-.1.5-.3a.6.6 0 0 1 .1-.4c0-.1-.1-.1-.1-.3a.52.52 0 0 0-.2-.4s.3-.1 0-.3-.1-.3-.3-.3-.3.1-.5.1c0-.2-.1-.3-.1-.5l-.1-.1ZM11.25 155.3c0 .1-.5.6-.5.8a.86.86 0 0 1-.3.6v.8c-.1.3.1.4 0 .6s-.1.2-.2.3l-.6.2.1.4a.31.31 0 0 1-.1.2c-.1.1-.5.1-.5.1l-.3-.2v-.5a.37.37 0 0 0-.3-.2h-.5c-.3 0-.3-.2-.3-.2v-.1a2.61 2.61 0 0 0-.3-.8s0-.1.2-.2a1.21 1.21 0 0 0 .5-.5s-.1-.3.1-.3a1.27 1.27 0 0 1 .6.1l.3-.1.4-.2.5-.1s-.2-.1.1-.4.1-.3.3-.3.4-.1.6-.2h.4v.2ZM12.25 159.3s-.8-.2-.8-.1-.1-.1-.1.1.1.4 0 .4-.2-.3-.1 0l.3.6.4.3h.73l.3.1v.1s.2-.1.1-.4 0-.4 0-.4l-.2-.3ZM10.85 160.6h-.4s-.3 0-.3.2-.3.1-.3.3-.7.4-.7.4 0-.1.1.1.1.4.3.4.6.1.6 0 .3-.2.3-.1a.37.37 0 0 1 .1.3c0 .1-.1.3-.1.4s.1 0 0 .1.1.4.1.4l-.2.6a.35.35 0 0 0-.1.2c0 .1.4.2.4 0s.1-.3.3-.4a.37.37 0 0 1 .3-.1s-.1.1.2.1.6.1.6-.1v-.7s-.1-.3 0-.4v-.6l-.2-.2-.1-.3s.1-.4-.1-.4-.3-.1-.5-.1ZM8.05 164.6l-.2-.3-.6.1v.5a.3.3 0 0 1 0 .4c-.1.1-.2-.1-.3 0s-.6.1-.6.1h-.3l-.3.3-.3.3-.6.3-.6.4s-.1 0 0 .3a.91.91 0 0 0 .8.4c.2 0 .5-.3.6 0a3 3 0 0 0 .5.7s.1-.1.4 0a.64.64 0 0 0 .6 0 .78.78 0 0 0 .4-.4l.3-.3.9-.4a3.22 3.22 0 0 1-.2-.6 3.22 3.22 0 0 0-.2-.6s.3.1.1-.3c-.1-.2-.2-.3-.3-.5ZM9.75 167.2l-.4.4-.1.3s.1.3 0 .3-.3.3-.3.3h-.27l-.4-.2-.6.2s-.3.3-.3.4.2.5.4.6a1 1 0 0 1 .5.4c0 .2.1.3.1.5 0 0 .5.2.6-.2s.1-.6.2-.7.3-.3.5-.4c0 0-.1-.1.2-.1s.4-.1.4-.2v-.5l-.3-.3h.3l.2-.3v-.3a.9.9 0 0 1-.1-.5ZM16.68 166.1l-.9.2.4.6.3.4-.3.3a.76.76 0 0 1-.4.2.37.37 0 0 0-.1.3c0 .1-.3 0-.6.2a6.12 6.12 0 0 1-1.2.5h-.3c.3 0 .4.7.6.7h.8s-.1-.1.3-.2c.2-.1.5-.2.7-.3.4.1.6-.2.8.1s.4.3.4.4l.3.6-.2.7s.3.3.4.2a1.76 1.76 0 0 0 .5-.4l.3-.5s-.1-.4 0-.5-.4-.4-.4-.4l-.8-.2-.5-.7v-.3l.8-.3.5-.2-.6-.7ZM17.25 171.1a4.05 4.05 0 0 0-.9.5 1.38 1.38 0 0 0 .3.4h.4l.2-.4ZM16.85 172.5l-.4-.3s-.3-.1-.3.3.1.8.3.8h.4ZM11.15 170.7h-1l-.6.4-1 .2s-.1.5.4.5-.1-.1.3 0 .9.2.9.3-.2.2.1.2.8-1.2.8-1.2ZM4.25 170.1a5.55 5.55 0 0 1-.8.6l-.9.3-.8.1-1 .1-.7.5.5.6s-.1.5 0 .6-.1.3.1.4a1.87 1.87 0 0 1 .4.3s.8.1.8-.1.3-.2.3-.4-.4-.7-.1-.8.5-.2.8-.3c.1-.1.3-.2.4-.1l.3.3.4-.1.1-.3c0-.1.1-.2.1-.4a1.69 1.69 0 0 0 .2-.5v-.3ZM3.55 173.7l-.6.1-.2.2a.43.43 0 0 1-.4.2c-.3 0-.8-.1-.7 0s-.1.3-.1.4-.1.3-.1.5v.3a1.42 1.42 0 0 0 .2.4.76.76 0 0 1 .4.2c.1.1.4.3.3.4s.6.1.6.1l.1-.1a3.21 3.21 0 0 1 .5-.3s0-.3.1-.3.9-.1.9-.1v-.5c0-.2-.3-.4-.3-.4l-.2-.2-.3-.3a2.27 2.27 0 0 1-.1-.4.35.35 0 0 0-.1-.2ZM9.15 172.2l-1-.2h-.47l-.3.4c0 .1.1.2.2.3s.3.4.6.5.3.1.4.3a1.27 1.27 0 0 1 .1.6c0 .2.5.2.5.3s.1-.1.4 0 .1-.1.4.3a4.62 4.62 0 0 1 .7.7c.1.1.3 0 .3 0l.3-.3s-.1-.4 0-.4.1-.6.1-.6l-.1-.6s-.3-.4-.4-.4a4.17 4.17 0 0 1-.6-.2l-.3-.3-.3-.3ZM9.85 176.9a1.63 1.63 0 0 0-.6.3c-.1.1-.9.1-.8.2s.2.3.3.4.2.3.3.4a4.33 4.33 0 0 0-.1.5c0 .1-.1.3 0 .4a2 2 0 0 0 .8.1.75.75 0 0 0 .5-.1.6.6 0 0 1 .4-.1c.1 0 .9.1.9.1s.1-.2.1-.4-.1-.3-.3-.4l-.1-.2-.2-.1.2-.3v-.3c-.1-.1-.2-.1-.4-.1s-.4.1-.4-.1-.1-.4-.3-.5ZM5.25 178.5l-.3-.5s-.4-.1-.4 0-.1.2-.1.3v.5c.1.1-.1.4 0 .4s.1.2.1.4.2.3.2.4a.37.37 0 0 1-.1.3s-.1-.2-.1.1-.5.5-.1.6l.8.1a2.27 2.27 0 0 0 .4-.1s0-.4.1-.4a.22.22 0 0 0 .2-.2c0-.1-.2-.3-.2-.4s-.3-.3-.3-.3l-.1-.3-.1-.3Z" class="cls-2"/><path d="m6.35 178.5-.2.6a2.54 2.54 0 0 0 .2.7 1.21 1.21 0 0 1 .5.5c0 .1.1.3.1.4a.86.86 0 0 1-.3.6c-.1 0 0 0-.3.1s-.7.1-.8.3-.2.3-.3.4v.4c0 .1-.1.2.1.2s.5-.1.8-.1l.4-.2.6-.6.3-.2a.45.45 0 0 1 0-.5c.1-.1.1-.2.2-.3s.3-.1.3-.3.1-.6 0-.8-.3-.4-.4-.6-.1-.3-.3-.4-.3-.2-.5-.3ZM13.25 181.4c.1.3.3.5.4.8l.3.6-.1.5a1.27 1.27 0 0 1-.6.1h-.8s-.1-.2-.2.2-.7.7-.7.7h-.8l-.3.6a11.94 11.94 0 0 1-1.6.8l-.5.7-.5.1a.37.37 0 0 0-.1.3 1.38 1.38 0 0 1-.3.4h-.3s-.6.1-.6.3.1.5.1.6v.4s0 .4.1.4.3.1.4.2l.2.3.1.1c0 .1.1.2.2.3l.3.3s-.1.5 0 .6.3.1.4.2a5.16 5.16 0 0 0 1.1.2c.2 0 .4.1.6.1a.64.64 0 0 0 .6 0 12.86 12.86 0 0 1 1.9-.4s-.2-.3 0-.3a2 2 0 0 0 .8-.4 1.69 1.69 0 0 1 1-.3s-.1-.3.1-.4.7-.6.8-.6a2.09 2.09 0 0 1 .6.4s-.2.2.1.2.4-.1.5-.6a1 1 0 0 1 .5-.6l.1-.2s-.1-.1 0-.4a6.66 6.66 0 0 1 .3-.7v-.9s-.1 0 .1-.1.6-.6.4-.8a2.65 2.65 0 0 1-.5-.6 6.13 6.13 0 0 1-.4-.6l-.1-.3s0-.5-.3-.5-.5-.1-.8-.1l-.4-.6c-.1-.2-.3-.5-.4-.7a1.27 1.27 0 0 1-.6-.1c-.2-.1-.7-.3-.7-.3ZM25.15 200l.2-.3s.4-.4-.2-.7-1.1-.6-1.1-.6h-.5l-.3 1s.4 0 .3.3-.4.1-.3.4-.1.2.4.4.8.5 1 .3a9.22 9.22 0 0 0 .5-.8ZM25.05 201.5l-.5-.3-1.3-.2-.8-.5a6 6 0 0 0-.8.8c0 .1-.6.9-.4 1.1a.81.81 0 0 0 .8.4 4.82 4.82 0 0 0 1.5-.7c.6-.3.8-.6 1-.5s.5-.1.5-.1ZM27.35 200.2l-.9.3s-.3.3-.3.4.1.7.1.7a.6.6 0 0 0-.1.4v.6s.3.8.6.9a.66.66 0 0 0 .8-.5 4 4 0 0 0-.3-1.5s-.8-.3-.6-.4a2.2 2.2 0 0 1 .8-.1c.1 0 .3-.2.3-.2l-.2-.8h-.2ZM30.55 193.5v-.74l-.6-.9a2.18 2.18 0 0 1-.5-.4 5.55 5.55 0 0 0-.8-.6c0 .1-.6.6-.6.7-.3.3-.7.5-1 .8l.3 1.1s-.5.1-.1.5a4.42 4.42 0 0 0 1.6.6s.1-.4.1.1a2 2 0 0 1-.1.8.91.91 0 0 0 .7.3h1a2.77 2.77 0 0 0 .9.1s.1 0 0-.6a1.78 1.78 0 0 0-.4-1l-.3-.4ZM33.55 190.1a4.4 4.4 0 0 1-1-.2l-.1.8-.6.4s-.3.1-.1.3.3.3.2.4-.4 0-.4.2a1.21 1.21 0 0 0 .5.5c-.1.1-.1.3-.2.4a.78.78 0 0 0 .4.4c.1 0 .5-.6.5-.6s.1-.3.3-.3a1.63 1.63 0 0 0 .6-.3h.3c.1 0 .4-.5.4-.5s-.1-.2.3-.1.3 0 .4.1.2.1.4.1a.23.23 0 0 0 .1-.4c-.2-.2-.4-.3-.5-.4a1.7 1.7 0 0 1-.1-.7s-.1-.4-.2-.4h-.8ZM36.05 191.6l-.2.6s-.1.3 0 .4a2.07 2.07 0 0 0 .6.2v.3c0 .1-.2.2.1.3a3.75 3.75 0 0 0 1.1-.1h.7s.3-.4.1-.5-.3-.4-.5-.6c0-.1-.3-.1-.3-.2s-.3-.1-.4-.2l-.8-.3h-.4ZM34.75 193.7s-.6-.1-.7.1-.1.4-.3.5-.3.2-.5.3l.4.4.3.3a1.89 1.89 0 0 1 .6.4h.13c.1.1.4-.1.4-.1s-.1-.1.1-.1.3.1.5.1.2-.1.3-.2-.1-.3 0-.4v-.4l-.2-.4c-.1 0-.3-.1-.4-.1a.37.37 0 0 1-.3-.1l-.1-.1ZM32.25 194.1a.27.27 0 0 0-.3.3c0 .1.1.2.1.3s.1.1.2.2.4.2.4.1 0-.1-.1-.4 0-.2-.1-.3c.1-.2 0-.2-.2-.2ZM34.95 200.2l-.4.7c-.1.1-.6.5-.6.6a.6.6 0 0 1-.1.4c-.1.2-.3.5 0 .6s.4.1.6.2c0 0 .7-.4.8-.2a.55.55 0 0 0 .3.5l.6.3c.1 0 .1-.3.3-.4a3 3 0 0 0 .7-.5s.1-.5-.2-.6l-.5-.3-.1-.3.3-.3.1-.6-1.1-.1ZM71.45 180.2a1.27 1.27 0 0 0 .1-.6l-.9-.6s-.4.3-.3.5a3.63 3.63 0 0 1 .3.7c0 .1.1.4 0 .6s-.3.3-.3.4-.2.3-.3.5a2.18 2.18 0 0 1-.8.5c-.2.2-.3.4-.5.6 0 .1-.3.1-.2.4a2.77 2.77 0 0 1 .1.9s-.3.3-.1.4a2.41 2.41 0 0 0 .8.6 10 10 0 0 1 1.1.4l.8.1s.6-.3.5-.4l-.4-.4-.1-.3a.75.75 0 0 1 .1-.5c.1-.2.4-.7.4-.7s.1-.1 0-.4l-.2-.6-.2-.3-.1-.4a.37.37 0 0 1-.1-.3v-.7l-.1-.2Z" class="cls-2"/></g><path id="AC5" d="m31.2 153.8 1.6-.5h.5v-.8l1.3-.8h1v1a2 2 0 0 0 .8.4c.2 0-.1-.4.9-.4a7 7 0 0 0 2.5-.5l1.5-.2.8.9.5.8v1l1.3.9.7.8v.8l-.6.8-.2 1s-1 .7-1.1.6-1 .6-1 .6h-1.2l-.8-.6-1 .4-1 .2-.8.6h-1.4s-.8.1-.8-.3-.3-.7-.1-.9.6-.3.3-.6a9.38 9.38 0 0 0-1.2-.9l-1.8-.1s-1.7.1-1.5-.3.4-.5.5-.8a3.4 3.4 0 0 0-.1-1s-.3-.6.1-.6a4.18 4.18 0 0 0 1-.4Z" class="cls-2" transform="translate(.68 -.24)"/><path id="AC32" d="m59.8 12.1.3-.4 1.7-.5a1.7 1.7 0 0 1 .7.1c.2.1.5.1.5.3s0 .3.1.3a10.37 10.37 0 0 0 1-.4l.6-.12.14-.19.21-.71.45-.08s.4 0 .4.1.3-.1.4.1.3.2.5.3.3.1.4.1.4.1.6.3.1.4.2.6a2.65 2.65 0 0 0 .6.5h.4s.3-.3.3-.4l.06-.63V11c.3-.1.76-.43 1.19-.27h.81a1.85 1.85 0 0 1 .7.2l.9.3c.1.1.7.2.8.3l.3.1s.6.4.6.5c.4.1 1.4-.45 1.5-.31a9.32 9.32 0 0 1 1.6-.39l1-.1.85-.23s.85-.17.95-.17 1.22-.37 1.22-.37h1a6.37 6.37 0 0 0 .7.2c.1.1.3.2.4.3l.8.3 1 .3a2.19 2.19 0 0 1 .5.3 1.21 1.21 0 0 0 .5.5c.1 0 .5.5.6.5s.49.07.49.07l.6-.23.51-.34.1-.3s.42-.08.52-.08.34.17.44.27l.28.26 1.06.55 1.89-.23 1.49.45 1-.12h.47c.4 0 .33-.07.73-.17a3.67 3.67 0 0 1 1.14-.45l.63-.32L99 12l.73-.49.78-.12c.3-.1.63-.31.93-.41a2.12 2.12 0 0 1 .36-.65c.1-.1.14-.45.24-.55a9.71 9.71 0 0 1 .41-1l.92-.32.09-.06.54-.4.88-1.46.42-1.54.1-1.61.06-1.5.11-.93 1-.49.53-.18 1.5 1.61.5.8.2.5v.4l.2.4.3.4.3.5v.9l.3.4v.5l-.9.3-.1.4-.1.3.3.1.3-.1h.3l.3.1.1.3-.1.3-.1.3-.1.2-.1.1h0l.1.3.8 1.5.7.8v.9l.3.4.5.8v1.1l.5.8.3 1.5.7 1.1.3.8.3.9.1.8v1.5l.4 1.1.8.9 1.3 2.3 1 2 .9 1.3.4.9 1.5 2.6.7.9.6 1.1v1l.3.8 1.1 1a4.81 4.81 0 0 0 1.2 1.6c.8.7 2.8 3.1 2.8 3.1l.3.8 1.1 1.5.6 1v.9l-.3.5.3 1 1.1 1.3.7.7h.3l.3 1.5-.6.4.6.6v.9l.5 1 .8.6.7 1.2.7 1.6 1 1.4.6.5.3 1.1.4 1.3v.5l.9.5v.4l.8 1 .4.9.6.6-.3 1v1.7l.3 1.4.4.4c-.5.2-.9.4-1.4.6l-1.2.9-.8.1-.4.4c0 .1-.3.3-.3.4s-.6.1-.6.1-.3.3-.3.4a.9.9 0 0 0-.1.5v.6c-.1.2 0 .1-.1.4s-.1.3-.3.4l-1-.3a.14.14 0 0 0-.2 0c-.1.1-.4.1-.4.1l.1-.3s-.6-.4-.6-.6.3-.5-.1-.8a1.33 1.33 0 0 0-.8-.3c-.1 0-.4.1-.5-.1l-.9-.6s-.7-.2-.7 0-.5.3-.6.5-.6.4-.6.4l-.1.2-.6-.3-.8-.3h-.4s-.4-.4-.5-.4-.3-.1-.4-.1h-.1c-.1.1-.6-.1-.6-.1l-.3-.2-.4-.3s-.4.2-.4.3-.4.3-.4.3l-.5.6s-.3.3-.3.4a.52.52 0 0 1-.2.4c-.2.1-.4.3-.5.2a7 7 0 0 0-1.2-.3h-.3c-.1 0-.4-.3-.4-.3l-.2-.6-.6-.3-.6-.4-.1-.3a1.38 1.38 0 0 0-.4.3l-.1.6a.37.37 0 0 0-.2.3c0 .2-.2.2-.3.3s-.1-.1-.1.1v.6l-.7-.1-1-.1-1.2-.7a6 6 0 0 1-.7-.3c-.4-.1-.34 0-.78.25l-.74-.17a1 1 0 0 1-.33-.45c.15.21-.29-.27-.69-.27l-1.06.14s-.44-.52-.54-.52L109 72c.08-.07 0 .1-.35 0-.2-.2-.32-.48-.52-.68l-.42-.54-.25-.26a3.14 3.14 0 0 0-1.63.29l-.95.14-.5-.4-.62-.73-.4-.6-.13-.38-.75-.19c-.3.1-.12.08-.42.08.1-.1-.59-.06-.59-.06h-.49a1.38 1.38 0 0 1-.45.37c-.25.11-.51.47-.71.27l-.93-1s.09-.46.19-.46c.3 0 .9-.6 1.2-.8.1-.2.3-.4.4-.6l.5-.4.1-.4v-.07c0-.07 0 .07-.09-.13 0 0 0-.14 0 0s-.25-.26-.65-.16l-1 .29-1-.38-.71-.46-.53-.74s-.3-.3-.4-.3a1.6 1.6 0 0 0-.8.3c-.2.2-.6.2-.6.4a.52.52 0 0 1-.2.4l-.3.3s-.6-.3-.6-.4-.4-.2-.4-.2l-.2-.4s-.3.1-.3.2-.1.4-.1.5-.2.2-.3.3a1.61 1.61 0 0 1-.7.4 2.61 2.61 0 0 0-.8.3c-.3.1-.5.2-.8.3a.37.37 0 0 0-.3-.1c-.1 0-.5-.2-.5-.3s.1-.7.1-.7v-.3s.2-.2.2-.3-.6-.6-.6-.6l-.1-.6-.4-.2-1.3-.1-1.1.4a4.35 4.35 0 0 0-.6.7 2.27 2.27 0 0 0 .1.4 3.18 3.18 0 0 0 .3.9c.1.1 0 .6 0 .6l-.2.6-.8.1a1 1 0 0 0-.5.4l-.31.28-.25-.34-.54-.18c-.1 0-.16-.06-.26 0s-.17.24-.27.24h-.61s-.34-.29-.44-.19-.65.11-.65.21-.16.25-.16.25l-.6.12s-.26-.09-.26-.19-.38-.11-.38-.11l-.37-.76c-.1-.2-.2-.48-.3-.68s-.24-.33-.34-.53l.23-.32.3-1.7-.1-1 .6-.6.2-.3-.2-.4s.1-.3.3-.8 0-.6 0-.6L80.6 58l.1-.8.8-.8.5-.8a15.62 15.62 0 0 0 .7-1.7v-.42a3.24 3.24 0 0 1-.1-1.38c-.42-.35-.67-.11-.7-.2a6.84 6.84 0 0 0-.56-.79 9.33 9.33 0 0 0 1.06-1 .94.94 0 0 0 .1-.38l.82-.25 1.3-.67-1-.72a3 3 0 0 1-.6-.94c-.1-.4-1.09-.15-1.29-.25l-1.21-.3-1.52-1-1.3-.8a7.39 7.39 0 0 0-.76-1.12c-.2-.1-1-.38-1-.38l-.48.57h-1.52l.1-1.5.4-.4.1-1.1.2-.6.14-.3-.45-.43h-1.09l-.55-.53.85-.87.4-.6.3-.3-.82-.24.48-1.3v-1.5l.9-.6a.76.76 0 0 0 .2-.4c0-.3.9-.3 1.3-.5a4.44 4.44 0 0 0 1.1-.8 2.3 2.3 0 0 1-.11-1.2c.07-.19-.25 0-.25-.23a1.25 1.25 0 0 1 0-.34l-.06-1-1.32-.41a2.21 2.21 0 0 1-.46-.54c-.3-.5 0-.77 0-.77l-.63-.58-1.84-.75-.79-1-.18-1 .14-.68v-.8a1.38 1.38 0 0 1 .3-.4c.2-.1 0-.12 0-.12a3.65 3.65 0 0 0-.35-.52v-.43l-.08-.33-.5.2-.3.5-.4-.1-.4-.2s-.8.1-1 .1-.2-.1-.2-.1a6.37 6.37 0 0 1-.7.2c-.1 0-.3.3-.3.3h-.5a1.38 1.38 0 0 1-.3-.4c-.1-.1-.2-.3-.3-.4s-.6-.3-.7-.4a1.85 1.85 0 0 1-.2-.7l.07-.61.27-1.19-.21-.25-.5.4-.9.7a5.16 5.16 0 0 1-1.1.2l-.3-.3A1.61 1.61 0 0 1 63 18a1.27 1.27 0 0 1-.1-.6 6.89 6.89 0 0 0-.3-.8c-.1-.3-.4-.6-.4-.7a10.37 10.37 0 0 1-.4-1c0-.2-.6-.3-.6-.3-.3-.1-.5-.2-.8-.3a2.2 2.2 0 0 1-.1-.8c0-.1.1-.6.1-.7-.2-.2-.5-.4-.6-.7" class="cls-2" transform="translate(.68 -.24)"/><path id="AC8" d="m60.9 86.5-.1.3v.6a5.55 5.55 0 0 1-.6.8l-.2.1s-.3.2-.3.3a.75.75 0 0 0 .1.5c.1.1.2.3.3.3s.3.2.5.3l.5 1.1a5.94 5.94 0 0 1 .4.8c.3.3.6.5.9.8a1.27 1.27 0 0 0-.1.6c.1.2.3.5.4.7 0 0 .1-.6.2 0a2 2 0 0 1-.2 1.1 2.19 2.19 0 0 1 .3.5v.5s-.2.7-.2.8v.8a.6.6 0 0 0-.1.4c0 .1-.3.3-.4.4a1.14 1.14 0 0 0-.3.8l-.1.3h-1.3l-.8.3-.1.1-.4-.7-.6-.6c-.1-.2-.3-.3-.4-.5a1.33 1.33 0 0 1-.3-.5v-.5a2.18 2.18 0 0 0 .5-.4 1.42 1.42 0 0 0 .2-.6c0-.1.2-.3.2-.3l-.8-.4-.2-.6c-.1-.4-.2-.7-.3-1.1 0-.2.1-1.1.1-1.1l-.1-.2-.4-.4a7 7 0 0 0-.8-1 .85.85 0 0 1-.3-.5s-.7-1.1-.6-1.2v-.4a4.87 4.87 0 0 0 .4-1.1.76.76 0 0 1 .2-.5l-.3-.6a2.61 2.61 0 0 1-.3-.8v-.6c0-.1.4-.4.4-.4l.6-.1.6.3.8.4.4.5.8.2.8.6.9.3.1-.4" class="cls-2" transform="translate(.68 -.24)"/><path id="AC3" d="M59.6 99.7h0l.9-.4h1.3l.1-.3a1.33 1.33 0 0 1 .3-.8c.1-.1.4-.3.4-.4s.1-.3.1-.4v-.8a6.37 6.37 0 0 1 .2-.7l.1.1h1c0 .4.1.7.1 1.1.1.1.4.8.6.8h1c.3.1.6-.4.6-.4l.5-.7.4.8c.1.3.6-.1.5 1s0 .3 0 .3l-.1.5a.6.6 0 0 0 .1.4c0 .1 1.2 0 1.2 0s.1-.3.3.1.3.4.3.5-.1.4-.3.6l-.8.4c-.1.3-.1.5-.2.8 0 .1-.3 1.5-.3 1.5L67 105l-.1 1.1-.4.8.63.66v.24l-.7.6-.4.3-.3.3a2.65 2.65 0 0 1-.5.6.37.37 0 0 0-.1.3l-.7-.2-.5-.5c-.2-.2.1-.3 0-.4a1.42 1.42 0 0 1-.2-.4l-.6-.3v-1.6l-.5-.1-.3 1.5a1.4 1.4 0 0 1-.4.8l-.3.6-.7.6-1.6-1.6a4.71 4.71 0 0 0-.2-.5.9.9 0 0 1-.1-.5.55.55 0 0 1 .3-.5c.1-.1 0-.3 0-.3a1.46 1.46 0 0 1-.5-.3c-.2-.2-.3-.1-.3-.2a.52.52 0 0 1-.2-.4c-.1-.3-.1-.1 0-.3s.1-.2.1-.3a1.09 1.09 0 0 0-.1-.5c-.1-.2.1-.3.1-.4a1 1 0 0 1 .4-.5 2.65 2.65 0 0 0 .5-.6l-.3-.6c0-.1.3-.4.3-.6v-.3s.1-.9.1-1 .3-.9.2-.8" class="cls-2" transform="translate(.68 -.24)"/><path id="AC33" d="M79.32 65.1a2.09 2.09 0 0 1 .4.6c.1.2.2.5.3.7l.3.8s.4 0 .4.1.3.2.3.2l.6-.1.1-.3a2.54 2.54 0 0 0 .7-.2c.1-.1.4.2.4.2h.6c.1 0 .2-.2.2-.2a.37.37 0 0 1 .3-.1 4.33 4.33 0 0 0 .5.1c.1 0 .4.4.4.4a.44.44 0 0 0 .1-.3 2.18 2.18 0 0 1 .5-.4l.8-.1c.1-.2.1-.4.2-.6v-.6l-.3-.9A2.27 2.27 0 0 0 86 64c.2-.2.4-.5.6-.7l1.1-.4 1.3.1.5.2.1.6s.6.5.6.6-.2.3-.2.3v.3s-.1.6-.1.7.4.3.5.3.2.1.3.1a1.14 1.14 0 0 0 .8-.3 6.89 6.89 0 0 1 .8-.3 4.35 4.35 0 0 0 .7-.4l.3-.3a4.33 4.33 0 0 0 .1-.5c0-.1.3-.2.3-.2l.2.4s.5.1.5.2c.2.1.4.3.6.4l.3-.3a.52.52 0 0 0 .2-.4c0-.2.4-.2.6-.4s.6-.2.8-.3.4.3.4.3l.4.6.5.3.4.3.9.3c.3-.1.6-.2 1-.3.1-.1.6.2.6.2s.2.3.3.4-.5.3-.5.3l-.1.4-.5.4a2.09 2.09 0 0 1-.4.6 6.89 6.89 0 0 1-.8.3c-.1 0-.2.5-.2.5l.3.3.6.6c.1.2.6-.1.6-.1l.6-.5s.6 0 .5.1a3.4 3.4 0 0 0 1-.1l.8.2.1.4.4.6.6.7.5.4.8-.1 1.1-.3h.7l.1.1a2.65 2.65 0 0 1 .5.6c.2.3.4.5.6.8h.3a6.89 6.89 0 0 1 .8.3l.5.5c.4 0 .7-.1 1.1-.1.2-.1.6.3.6.3l.4.4c.4.1.8.2 1.1.3h0l-1.3.6h-1.4l-.9.7-.4.7-.7.6c-.3 0-.7.1-1 .1 0 .1.22.33.12.34a4.16 4.16 0 0 0-.92.46c-.2.1-.54.08-.74.28l-.26.69-.21.24c0 .1-.19.19-.19.29l-.3.3c-.19.13-.11.35-.19.32a.66.66 0 0 1 0 .48c-.1.3-.19.37-.19.47s-.14 0-.14.19l-.27.34h0c.1.2-.09-.1 0 .1a1.57 1.57 0 0 1 .2.46s.45.27.45.47v.55c0 .1 0 .35.09.45s-.4.51-.5.61l-.3.3s-.4.1-.4.2-.3.3-.4.4-.3.2-.4.3-.2.2-.3.2a.9.9 0 0 0-.5.1c-.2.1-.5.2-.7.3v.1a.52.52 0 0 1-.4-.2c-.2-.1-.4-.1-.6-.2l-.6-.3a.35.35 0 0 1-.1-.2c0-.1-.1-.2-.1-.3l-.4-.1s.1-.1 0-.4a2.09 2.09 0 0 0-.4-.6s-.2-.1-.2-.2.09-.58.1-.72-.37-.62-.39-.6l-.47-.27-.65-.09s-.41.5-.51.6-.15 0-.18.18.1-.14-.16 0a3.58 3.58 0 0 1-.34.18v.35a1.27 1.27 0 0 1-.09.43c0 .2-.43.52-.53.72l-.2.3-.3.1-.6-.2-.5.1-.4-.3c-.1-.1-.3-.2-.4-.3l-.3-.3s-.2-.3-.3 0a.32.32 0 0 1-.3.3l-.3.1a6.13 6.13 0 0 1-.6.4H91l-.6-.2-.69.23a3.36 3.36 0 0 0-.28.94 2.48 2.48 0 0 1-.36.73L89 86s-.08.37 0 .47.23.08.33.18l.63.62s.22.2.24.3a.75.75 0 0 1-.12.52c-.1.2-.36.18-.36.28a1.27 1.27 0 0 1-.6.1c-.1 0-.8-.2-.8-.2l-.1-.8-.7-.2-.6.4s-.4-.1-.4-.3a5.64 5.64 0 0 0-.1-.7s-.47-.37-.57-.17.11.61 0 .71-.38.3-.38.4a.75.75 0 0 1-.07.43c-.1.2-.52.15-.52.15l-.37.34c0-.26 0 0-.08.14h-.23l-.55.08-.56.07c.1.1.06.26.06.36a1.24 1.24 0 0 0 .25.38 2.2 2.2 0 0 1 .49.25h.28l.6.67V91s-.07.6-.07.7c-.31.38-.91.48-.88.2-.1 0-.2-.1-.3-.1a3.21 3.21 0 0 1-.3-.5L83 91l-.4-.4h-.2l-.5.3-.6.1v.8c0 .1-.4.1-.4.1l-.4.1h-.2l-.6.3c-.1 0-.4.1-.4.2v.58c0 .1.4.22.4.22l.27.34 1.42.11.67.56.16.69c0 .2.18.2.18.4s.59.37.59.47v.73c-.1.2-.2.3-.3.5l-.5.3-.3.3s.06.32.26.42.14.48.14.48-.2.3-.3.4-.1.3-.2.4a.37.37 0 0 0-.1.3c0 .1 0 .06.06.26a1.48 1.48 0 0 1 .14.64 2.27 2.27 0 0 0 .1.4s-.2.2-.2.3-.1.3-.1.4l-.1.3-.13.66.4.7s.23 0 .23.44a1.8 1.8 0 0 1-.4.9l-.3.3c-.2.2-.4.2-.4.3a4.35 4.35 0 0 1-.6.7l-.1 1 .1.7s.43-.16.53-.06.08 0 .38.07.37.09.47.19c0-.41.55-.85.46-.76s.08-.35.35-.47c0 0 .1 0 .19.22s.1.41.2.61l.36.09.67.41.14.3-.14.12c.24.14 0-.07.32.22l.4.3v-.11c.1.1.53-.21.53-.21l.3-.26.42-.08h.08a6.8 6.8 0 0 0 1.26.07 1.33 1.33 0 0 0 .15.6c.1.3.2.3.2.5s-.1.1-.1.4-.2.2-.1.4a2 2 0 0 0 .23.48c.2.3.08.17.18.17v.1l.1.6s-.3.4-.4.4a.86.86 0 0 1-.6-.3c-.1-.1-.4-.6-.6-.5s-.3.1-.5.2l-.6.1s-.1-.1-.1.2-.1 0-.1.3a1.27 1.27 0 0 0 .1.6 1.27 1.27 0 0 1 .1.6v.5c-.1.3-.1.2-.1.4s-.1.4-.1.6l-.2.3s0-.3-.1 0a1.38 1.38 0 0 1-.3.4s-.3.1-.3.3-.1.4-.2.6a2.27 2.27 0 0 1-.1.4s-.1.4 0 .4a.37.37 0 0 1 .1.3c-.1.1-.3.3-.3.4s-.2.3-.2.3l-.3.2-1.2.4h-.1s.1-.1-.1.2-.4.4-.5.4-.6.1-.6.1l-.5-.6-.7-.1h-.7l-.6.4c-.2 0-.3.1-.5.1a1.7 1.7 0 0 1-.7.1s-.3.1-.3 0-.3-.3-.4-.4-.3-.6-.5-.4a1.7 1.7 0 0 1-.7.1l-.6-.6-.3-.6a.76.76 0 0 0-.2-.4s-.4-.2-.4-.1-.4.3-.4.3-.1.3-.2.4.1.2 0 .2-.4 0-.4-.1-.2-.1-.2-.2v-.3c-.1-.2-.1-.3-.2-.5 0 0-.3-.3-.3-.2a6.73 6.73 0 0 0-.7-1.1.73.73 0 0 1-.11-.87c.1-.1.21-.13.21-.33s-.3-.4-.4-.6-.2-.3-.3-.5v-.7c-.36-.64.18-.65.32-.52a1.26 1.26 0 0 0-.22-.68c-.2-.2 0-.1-.1-.5a2.81 2.81 0 0 1-.1-.5c-.12-.4 0-.51 0-.81a1.26 1.26 0 0 0-.13-.59l-.6-.3c-.3-.2-.1.1-.3 0s-.3-.7-.3-.7l-.7-.2-1 .2-.3-.4-.51-.51.29-.79.18-1.22.82-1.18s.3-1.4.3-1.5c0-.3.32-.7.42-.9l.8-.4c.1-.2 0-.3.08-.5s0-.09-.24-.39-.14-.31-.14-.31-1.2.1-1.2 0-.12.2-.22.1l-.09-.46s0 .36.09-.74c.07-1.26-.36-.75-.45-.93l-.37-.78-.36.51s-.3.4-.6.4-.82.1-1.12.1-.7-.6-.7-.8A4.1 4.1 0 0 1 64 96c-.3 0-.63-.1-.93-.1s.07-.48-.06-.45l-.31-.65a2.59 2.59 0 0 0 .22-1.32c-.1-.6-.27.12-.27.12a1.4 1.4 0 0 1-.35-.66c0-.2.1-.34.1-.54a3.43 3.43 0 0 1-.66-.58l-.49-.75-.42-.87c-.1-.1-.13-.4-.23-.5s-.55-.32-.65-.42a1.49 1.49 0 0 1-.15-.71c0-.1.32-.22.32-.22l.23-.31c.2-.3.25-.34.45-.64v-.5l.34-.5.53-.53.25-.39.38-.38.21-.15s.58-.82.4-.58.5.13.59-.17l.42-.1h.8a.9.9 0 0 0 .5.1c.1 0 .3.1.4.1l.26-.25c.1-.1 0-.15 0-.25l-.06-.19c0-.1-.14-.21 0-.41s.06-.27 0-.27c-.1-.2-.1-.11-.2-.31s0-.21-.26-.51-.45-.22-.45-.42.1-.29 0-.39-.55-.16-.75-.36-.73-.55-.63-.65c0-.3.17-.24 0-.44a.74.74 0 0 1-.24-.35c-.1-.2-.42-.27-.52-.47s-.39-.36-.29-.46.11-.6.11-.6L62 77.3s.1-.5.1-.6v-.4l.1-.7.9-.3h1.1c.6 0 1.1-.8 1.1-.8s.5-.3.5-.4.5-.8.5-1.1.2 0 .2 0l.4-.3 1.3-.4c1.3-.4.1-.4.1-.4l1.1-.9.5.1s.6.2.5.1.9-.3.9-.3l.8.6h.2l.6-.6a6.13 6.13 0 0 0 .6-.4c.1-.1.5-.5.5-.6s.3-.6.3-.7a3 3 0 0 1 1-.4c.1 0 .1-.5 0-.6v-1.1s.7-.5.8-.4a3.09 3.09 0 0 1 .2.8h1.1s.1-.6.1-.8.2-.5.3-.7l1.2-.8.4-.4" class="cls-2" transform="translate(.68 -.24)"/><path id="AC31" d="m46.8 76.5.2-.5.3-.6.1-.8-.4-.4-.6-.6-.5-.4-.4-.4-.1-.5v-.5l-.3-.5-.3-.1-.5-.1c-.1 0-.2-.1-.3-.1a3.29 3.29 0 0 0-.6-.3s0-.5.1-.5a4.33 4.33 0 0 1 .5-.1h1V70c0-.1-.6-.5-.6-.5l-.2-.2-.8-.2s-.4-.1-.4-.2-.3-.2-.4-.3l-.3-.4.1-.1.2-.3.3-.1c.1 0 .3-.1.4-.1s.4-.1.4-.2 0-.3-.1-.3-.1-.1-.2-.1l-.3-.5v-.6c0-.1.2-1.3.2-1.3l.1-.4.8-.1.5-.1a.37.37 0 0 0 .3-.1v.1l-.3-.4-.1-.5-.1-.7-.6.3-.3.1s-.5-.1-.5 0-.1.2-.2.3 0 .2-.1.2-.4 0-.4.1.1.3 0 .4a1.44 1.44 0 0 1-.3.2c-.1.1-.2.1-.3.2s-.4.1-.4.3-.4.2-.4.3 0 .1-.2.1-.4.1-.4 0-.1-.1-.2-.2l-.2-.2a1 1 0 0 1-.1-.3.37.37 0 0 1 .1-.3l.2-.3s.3-.3.1-.4-.3-.2-.4-.2a.37.37 0 0 1-.3-.1c-.1 0-.2.1-.3-.1s-.1-.1-.1-.2 0-.1.1-.2l.2-.6s.2-.5.3-.5a1 1 0 0 0 .3-.1l.1-.1a.37.37 0 0 0 .1-.3v-.5s.1.1-.1-.4-.2-.1-.2-.1l-.3-.4c0-.1 0-.1.1-.2s-.1-.2.1-.3.3-.3.4-.3.3-.1.4-.1l.4-.1a.37.37 0 0 1 .3.1c.1.1.2.1.4.2a1.27 1.27 0 0 0 .6.1h.5a.6.6 0 0 1 .4.1l.4.3s.3.1.3.3.1.4.3.4l.3-.3c.1-.1.1-.2.1-.4l.3-.6c.1-.1.1-.3.2-.3s.1-.1.2-.1h.4l.6.1h.3a.44.44 0 0 0 .1-.3c0-.2-.1-.2-.2-.3l-.3-.4s-.1-.2-.2-.2l-.9-.1-.8-.2-.5-.2-.6-.4-.5-.4-.7-.4-.4-.3-.1-.4-.1-.3.5-.4.8-.5.3-.3-.1-.4a.52.52 0 0 0-.4-.2c-.3-.1-.6-.1-.8-.3h-.7l-.5-.1c-.1-.2-.2-.5-.3-.7s-.3-.4-.5-.6c0 0-.1-.6-.1-.7a1.38 1.38 0 0 0-.4-.3c-.1 0-.7-.2-.7-.3a1.42 1.42 0 0 1 .2-.6 1.27 1.27 0 0 1 .6-.1s.1-.1-.1-.3a1.38 1.38 0 0 0-.3-.4V48l.1-.3s0-.1.3-.1a5.64 5.64 0 0 0 .7-.1c.1 0 .2-.1.3-.2s0-.1-.1-.2 0-.4-.2-.4-.1-.2-.3-.2a2.2 2.2 0 0 0-.8.1l-.1-.1a.37.37 0 0 1-.1-.3c0-.1-.1-.2 0-.3a2 2 0 0 0 .4-.8l-.2-.2-.2-.4-.5-1.1-.3-.2c-.1-.1-.2-.3-.4-.3s-.4-.1-.6-.1c0 0-.4-.3-.3-.4l.4-.9-.1-1 .3-1.3-.3-.9v-1.5l.4-.9-.3-1.2.1-.4.5-.1a.37.37 0 0 1 .3.1c.1.1.2.1.4.2s.3.1.4.2.3.2.5.3.4.1.6.1.4 0 .4-.1.4-.3.4-.3l.1-.3s.2-.4.3-.4a.1.1 0 0 0 .1-.1l.2-.1.4-.1.3-.5.1-.4.3-.9.4-.2c.1-.1.3-.2.4-.3l.2-.3a.37.37 0 0 1 .1-.3c0-.1-.1-.3-.1-.4l-.1-.4.3-1.4.1-.6c-.1-.2-.2-.5-.3-.7l-.3-.3.1-.9c.1-.1.3-.2.4-.3a2.77 2.77 0 0 1 .9-.1 2.2 2.2 0 0 0 .8.1l.3-.2c.1-.2.3-.3.4-.4a1.38 1.38 0 0 0 .4-.3c.2-.1.3-.3.5-.4l.6-.3c.2-.1.1-.1.5-.3l.4-.2.3-.8.3-.3.8-.5.2-.2.3-.3.2-.1.3-.3.1-1.2.6-.6a12.49 12.49 0 0 0 1.2-.8l.8-.4.3-.3.2-.3a2.19 2.19 0 0 1 .5-.3c.1 0 .4-.7.4-.7l.2-.6v-.3l.1-.5v-.4l.2-.3s0-.1.2-.1.4-.1.6-.1l.6-.3c0-.3.1-.5.1-.8a1.34 1.34 0 0 1 .7-.6c.3-.1.1 0 .3-.1l.6-.4.8-.4.4-.2a4.35 4.35 0 0 1 .6.7c0 .1-.1.6-.1.7 0 .3.1.6.1.8a6.89 6.89 0 0 0 .8.3s.6 0 .6.3a3.36 3.36 0 0 0 .4 1s.4.4.4.7.2.5.3.8.1.4.1.6a2.51 2.51 0 0 0 .4.7l.3.3a4.25 4.25 0 0 0 1.1-.2l1-.7.4-.4.3.5a9.25 9.25 0 0 1-.3 1 6.53 6.53 0 0 0-.2 1.1 1.85 1.85 0 0 0 .2.7 1.27 1.27 0 0 0 .7.4 1.38 1.38 0 0 1 .3.4c.1.1.2.3.3.4h.5s.2-.3.3-.3a6.37 6.37 0 0 0 .7-.2s-.1.1.2.1 1-.1 1-.1l.4.2.4.1.2-.3.6-.3.1.4v.4a3.21 3.21 0 0 1 .3.5s.2.1 0 .2-.3.2-.3.4v.8l-.1.6.2 1 .8 1 1.8.7.7.6s-.3.2 0 .7a1 1 0 0 0 .5.6l1.3.4v1.4a.29.29 0 0 1 .3.3c0 .3-.1.4 0 .6v.9a4.44 4.44 0 0 1-1.1.8c-.4.2-1.3.2-1.3.5a.52.52 0 0 1-.2.4l-.9.6v1.5l-.4.9.8.3-.4.7-.4.6-.8.5.6.5h1.1l.4.4-.2.7-.2.6-.1 1.1-.4.4v1.1h1.5l.5-.6s.8.3 1 .4a4.44 4.44 0 0 1 .8 1.1l1.5 1 1.3.8a5.27 5.27 0 0 1 1.2.3c.3.1 1.2-.1 1.3.3a2.84 2.84 0 0 0 .8 1.1l.8.5-1.3.9h-.8s.1.6-.1.8a6.4 6.4 0 0 1-1.1.6s.5.8.6.8.8 0 .7.6a2 2 0 0 0 .2 1.3l-.2.2a15.62 15.62 0 0 1-.7 1.7l-.4.8-.8.8-.1.7.1 1.4s.2.1 0 .6c-.1.3-.2.5-.3.8l.2.4-.2.3-.6.6.1 1-.3 1.7-.4.4-1.2.8a4.88 4.88 0 0 0-.3.7c0 .1-.1.8-.1.8h-1.1s-.1-.8-.2-.8a5.94 5.94 0 0 0-.8.4v1.1c.1.1.1.6 0 .6a3 3 0 0 0-1 .4c0 .1-.3.6-.3.7s-.4.3-.5.4-.7.5-.7.5l-.7.7H72l-.8-.6s-.9.2-.9.3-.4-.2-.4-.2l-.5-.1-1.1.9s1.2 0-.1.4l-1.3.5-.5.3s-.2-.4-.2 0-.5 1-.5 1.1-.5.5-.5.5-.5.8-1.1.8H63l-.9.3-.1.7v.4c0 .1-.1.6-.1.6l-.6-.3s-.3-.3-.3-.4a1.42 1.42 0 0 0-.2-.6l-.6-.1s-.1.3-.2.3a2.19 2.19 0 0 1-.5-.3l-.5-.5-.3-.3-.3-.8-.8-.4h-.5c-.1 0-.6-.5-.6-.5l-.7-.1a1.88 1.88 0 0 0-.8.2c-.1.2-.2.3-.3.5l-.5.3-.9.3-1.2-.2-.6.4-.8-.2-.8.3-1.5.4-1 .5-.6.6" class="cls-2" transform="translate(.68 -.24)"/><path id="AC7" d="m132.49 155.82-.6-.1c0-.2-.1-.3-.1-.4a2 2 0 0 1-.4-.8v-.6l-.3-.6-.6-.1h-.8c-.1-.1-.3-.1-.4-.2l-.3-.2v-.1l.2-.5-.1-.6a6 6 0 0 1-.8-.8h-.6l-.8-.6L126 149l-.6-.9-1-.9-2.7-1.1-.4-.5-.6-.8-.1-.3.6-.6.6-.3a2.65 2.65 0 0 0 .6-.5c0-.1-.1-1.1-.1-1.1l-.2-.6.2-.6-.1-.1 1.2-.3.8-.2.4.1v-1l.5-1.3 1.7-.8 1.5-.1.8.1.9-.1 1.1.6.4.4.6.2-.3.6s.1.5-.1.7a.48.48 0 0 0-.1.6l1.3.7s.5-.1.5-.2a2.19 2.19 0 0 1 .3-.5l1-.1 1.1-.3.9.2 1.5.6.6.5.1.3c0 .1-.1.3-.1.4l.1.4.2.4.2.5v.7l-.2.4-.2.2.1.5.1.3.1.6-.1.4-.3.2-.4.5-.1.4-.2.4-.1.4-.2.4-.3.2-.8.3-.3-.6-.1-.9-.3-.8-.3.2a4.33 4.33 0 0 1 .1.5c0 .1.1.7.1.7s-.1.6-.1.8-.5.6-.5.6h-.4l-.4.1-.3.4a2.61 2.61 0 0 0 .3.8.37.37 0 0 1 .3.1v.5c0 .1-.2.3-.2.3l-.1.3.2.6-.3.3-.4.4v.5l.4.2v.4l-.1.3-.4.1a4.33 4.33 0 0 0-.5.1l-.5.3a.37.37 0 0 1-.1.3q0 .15-.3.3c.1-.3 0-.2 0 0" class="cls-2" transform="translate(.68 -.24)"/><path id="AC6" d="M128.89 152.82h0l.4.3a.52.52 0 0 1 .4.2h.8l.6.1.3.6v.6c.1.3.3.5.4.8a.6.6 0 0 1 .1.4l.6.1-.4.2-.2.1-.6.1-.3.1-.2.2-.1.3-.3 1.1-.1.4a.37.37 0 0 1-.3.1c-.1 0-.5.2-.5.3a.37.37 0 0 0 .1.3l.1.4v.2l-.1.3-.2.3-.3.4-.2.3-.1.3-.1.3v.2l-.3.3-.4.2-.4.3-.4.4-.1.4-.2.3a.37.37 0 0 1-.3.1c-.1 0-.6-.1-.6-.1l-.6-.1-.4-.3h-.3l-.3.3-.3.2-.1.4s-.2.2-.1.3l.3.3.2.4c0 .1 0 .1.1.2a2.27 2.27 0 0 0 .1.4v.4h-.4l-.4-.1-.5-.1-.3-.4-.4-.4-.3-.1H122l-.3.1-.1.3-.1.3-.2.3-.3.2-.2.4-.1.5-.2.3-.3.3-.3-.5s-.3-.1-.3-.2-.3.1-.3.1l.1.4a2.27 2.27 0 0 1 .1.4c0 .1 0 .1-.1.2l-.4.4-.3-.1-.3.1-.3.2c-.1-.1-.1-.1-.1-.2l-.3-.3v-.7l-.1-.9.4-.9.3-.8v-1l-.6.6-.5.7-.3.4-.5-.1-.2-.5s-.4-.3-.4-.2a1.42 1.42 0 0 1-.2.6.37.37 0 0 1-.3.2.37.37 0 0 0-.3.1.6.6 0 0 1-.4.1 6.89 6.89 0 0 1-.8-.3h-.5l.2-1-.5-.8-.6-.6c-.1-.1-.4-.4-.3-.5s.7.1.8 0h1.4l1.1-.3s.1-.1 0-.4l-.3-.9a.52.52 0 0 1 .2-.4c.1-.2.3-.3.4-.4a1.27 1.27 0 0 1 .6-.1c.2 0 1.8-.3 1.9-.3s1 .2 1 .2l1.1-.5.3-.4.1-.2.2-.7a5.55 5.55 0 0 1 .8-.6 1.42 1.42 0 0 0 .6-.2l.1-.3.8-.4.6-.2.8-.1.3-.3.3-.3.3-1.5.5-.5h1a.35.35 0 0 0 .2.1c.1 0 .8.1.8.1.1-.2.3-.4.4-.6a1 1 0 0 1 .49-.7Z" class="cls-2" transform="translate(.68 -.24)"/><g id="AC35"><path d="M139.08 141.26c.1-.1.2-.3.3-.4l.3-.5.3-.5.3-.4.1-.8.1-.3.2-.4.2-.3v-.5c.1-.1.2-.3.3-.4l.3-.3v-.7s.1-.6.1-.8a.37.37 0 0 1 .1-.3l.3-.5.1-.4v-1c0-.1.2-.2.2-.3s.2-.3.3-.4l.3-.5.3-.4.3-.3-.1-.3v-.1l-.4-.3v-.2l.3-.3.1-.4-.1-.3-.1-.4-.1-.6.3-.1.3-.4.3-.6.3-.4.3-.3.1-.5.2-.4.3-.3.4-.6.3-.3c0-.2.1-.4.1-.6v-1.5c0-.1-.1-.3-.1-.4l-.1-.2-.2-.3-.3-.1h-.5l-.4.3-.1.4-.2.3-.3.6-.5.3-.4.2-.2.4-.3.3-.3.1-.6.3-.5.4-.3.4-.7-.3-.6-.4-.3-.3-.4-.4s-.3-.4-.4-.5-.1-.4-.1-.4v.1l.1-.4c0-.1.1-.3.1-.4a.6.6 0 0 1 .4-.1s.3-.3.3-.4c.2-.1.4-.3.6-.3s.1-.4.1-.4a4.33 4.33 0 0 0 .1-.5c.1-.1.2-.3.3-.4l-.1-.5-.3-.4-.4-.3-.3-.4-.1-.5.1-.6-.1-.7-.2-.5-.6-.5v-.5l.4-.7.3-.7-.3-.7c-.1-.1-.1-.3-.2-.4a4.33 4.33 0 0 1 .1-.5l.3-.3v-.4l-.1-.4-.1-.3.1-.4.1-.5.2-1.3.1-.4.2-.2.3-.2.1-.3.1-.4.2-.4.3-.4.2-.3.1-.2s.3-.2.3-.3.3-.3.3-.3l.2-.2.1-.4.1-.4.1-.4.1-.4.1-.4-.1-.4.1-.4v-.2l.3-.3.3-.3-.1-.5-.1-.5-.1-.8v-.4l-.1-.4-.3-.4-.4-.7-.3-.4.1-.3.2-.4v-.4l.1-.3.2-.2.2-.3.1-.6.1-.5.3-.4.1-.3.3-.3.6-.2.2-.3.2-.4.3-.3.1-.7v-.4l-.1-.6-.1-.5.2-.3.2-.4-.2-.5-.1-.6-.2-.4-.1-.8-.3-.6-.2-.5-.6-.9-.1-1 .2-.6-.2-1.3-.1-2.9.3-.7-.1-1.2v-1.3l.5-.4-.9-1-.8-1.2v-1.7l-.5-.6c-.5.2-.9.4-1.4.6l-1.2.9-.8.1-.4.4c0 .1-.3.3-.3.4s-.6.1-.6.1-.3.3-.3.4a.9.9 0 0 0-.1.5v.6c-.1.2 0 .1-.1.4s-.1.3-.3.4l-1-.3a.14.14 0 0 0-.2 0c-.1.1-.4.1-.4.1l.1-.3s-.6-.4-.6-.6.3-.5-.1-.8a1.33 1.33 0 0 0-.8-.3c-.1 0-.4.1-.5-.1l-.9-.6s-.7-.2-.7 0-.5.3-.6.5-.6.4-.6.4l-.1.2-.6-.3-.8-.3h-.4s-.4-.4-.5-.4-.3-.1-.4-.1h-.1c-.1.1-.6-.1-.6-.1l-.3-.2-.4-.3s-.4.2-.4.3-.4.3-.4.3l-.5.6s-.3.3-.3.4a.52.52 0 0 1-.2.4c-.2.1-.4.3-.5.2a7.6 7.6 0 0 0-1.1-.4h-.3c-.1 0-.4-.3-.4-.3l-.2-.6-.6-.3-.6-.4-.1-.3a1.38 1.38 0 0 0-.4.3l-.1.6a.37.37 0 0 0-.2.3c0 .2-.2.2-.3.3s-.1-.1-.1.1v.6l-.7-.1-1-.1-1.2-.7a6 6 0 0 1-.7-.3l-1.3.6h-1.5l-.9.7-.4.7-.7.6a3.4 3.4 0 0 0-1 .1c0 .1-.3.5-.3.6s.2.3-.3.4c-.2.1-.4.1-.6.3l-.7.3-.2.4c0 .1-.1.2-.1.3l-.3.3a.69.69 0 0 0-.4.3l-.1.3c-.1.3-.1.2-.1.3v.4l-.2.5-.4.5c.1.2.1.3.2.5l.3.3a.37.37 0 0 1 .2.3v.4c0 .1.1.3.1.4a.37.37 0 0 1-.1.3l-.3.3s-.4.1-.4.2-.2.3-.4.4-.3.2-.4.3-.2.2-.3.2-.3.1-.5.1-.5.2-.7.3v.1a.52.52 0 0 1-.4-.2c-.2-.1-.4-.1-.6-.2l-.6-.3a.35.35 0 0 1-.1-.2c0-.1-.1-.2-.1-.3l-.4-.1s.1-.1 0-.4a2.09 2.09 0 0 0-.4-.6s-.2-.1-.2-.2a1.42 1.42 0 0 0-.2-.6 3.21 3.21 0 0 0-.5-.3l-.3-.2-.6-.1s-.2-.1-.3 0-.1.2-.2.3a1.44 1.44 0 0 0-.2.3l-.7.3v.3s.1 0 0 .3-.1.3-.2.5l-.2.3-.3.1-.6-.2-.5.1-.4-.3a4 4 0 0 1-.4-.3l-.3-.3s-.2-.3-.3 0a.32.32 0 0 1-.3.3l-.3.1c-.2.1-.4.3-.6.4h-.6l-.6-.2-.7.2a4.05 4.05 0 0 0-.5.9 4.18 4.18 0 0 1-.4 1l-.2.6s-.1.5 0 .6.3.1.4.2l.6.6s.2.2.2.3v.4c-.1.2-.3.2-.3.3a1.27 1.27 0 0 1-.6.1c-.1 0-.8-.2-.8-.2l-.1-.8-.7-.2-.6.4s-.4-.1-.4-.3a5.64 5.64 0 0 0-.1-.7s-.6-.3-.7-.1.1.7 0 .8-.4.2-.4.3.1-.1 0 .1l-.1.4-.5.1c-.1.2-.3.3-.4.4v.1h-.6l-.8.1a.6.6 0 0 1 .1.4 2.18 2.18 0 0 0 .4.5c.1 0 .6.1.6.1l.3.3.3.4v.5s-.1.6-.1.7a2.09 2.09 0 0 1-.6.4c-.1 0-.2-.1-.3-.1a3.21 3.21 0 0 1-.3-.5l-.5-.5-.4-.5h-.2l-.5.3-.5.2v.8c0 .1-.4.1-.4.1l-.4.1h-.3l-.6.3c-.1 0-.4.1-.4.2v.5l.4.3.3.3 1.4.1.7.6.2.6c0 .2.1.3.1.5s.6.4.6.5.1.6.1.6a1.38 1.38 0 0 1-.3.4l-.5.3-.3.3s-.1.4.1.5.3.5.3.5-.2.3-.3.4-.1.3-.2.4a.37.37 0 0 0-.1.3c0 .1-.1.1 0 .3a1.42 1.42 0 0 1 .2.6 2.27 2.27 0 0 0 .1.4s-.2.2-.2.3-.1.3-.1.4l-.1.3-.2.7.4.7s.3 0 .3.4a1.8 1.8 0 0 1-.4.9l-.3.3c-.2.2-.4.2-.4.3l-.6.7-.1 1 .1.7s.3-.1.4 0 .1 0 .4.1l.5.2a1.08 1.08 0 0 1 .3-.7l.5-.6s.1 0 .2.2a3.93 3.93 0 0 1 .2.6v.1l.4.1.6.4.1.2c.1.2-.3.1.1.3l.4.3h0c.1.1.8-.3.8-.3l.1-.2.7-.1h-.2l1.3.1a.6.6 0 0 0 .1.4c.1.3.2.3.2.4s-.1.1-.1.4-.2.2-.1.4-.1.1.1.4.1.4.2.4h.1l.1.6s-.3.5-.4.5a.86.86 0 0 1-.6-.3c-.1-.1-.4-.6-.6-.5a4.71 4.71 0 0 1-.5.2l-.6.1s-.1-.1-.1.2-.1 0-.1.3a1.27 1.27 0 0 0 .1.6c0 .2.1.4.1.6v.5c-.1.3-.1.2-.1.4s-.1.4-.1.6l-.2.3s0-.3-.1 0a1.38 1.38 0 0 1-.3.4s-.3.1-.3.3-.1.4-.2.6a2.27 2.27 0 0 1-.1.4s-.1.4 0 .4a.37.37 0 0 1 .1.3c-.1.1-.3.3-.3.4s-.2.3-.2.3l-.3.2-1.2.4h-.1s.1-.1-.1.2-.4.4-.5.4-.6.1-.6.1v1.1c.2.2.3.4.5.6 0 .2.1.3.1.5s.1.4.2.6a.9.9 0 0 0 .1.5s.1.3-.1.4l-.1.1-.3.3-.3.1-.5.3v.5s.3.9.4.9a3.11 3.11 0 0 1 .6.4s.4 0 .4.1.2.2.2.3.1.4.1.5.1.2.2.3l.4.1c.1 0 .8.2.8.2l.5.3a4.35 4.35 0 0 1 .6.7 5.36 5.36 0 0 0 1.1.5l.9-.4s.2.4.3.3a3.75 3.75 0 0 1 1-.1l.8.5.3.6c.1.2.2.5.3.7 0 0-.4.1 0 .4.2.2.5.4.7.6l.5.2.4.7a.37.37 0 0 0 .1.3 2.18 2.18 0 0 1 .5.8l.3.3v2.1l-.6.3-.7.5-.4.3-.3.3.6.5h.8l.6.4s-.4.3 0 .3a7.49 7.49 0 0 0 1.6-.4l.4.1s.9.5 1 .4a11 11 0 0 1 1.8-.2 5.64 5.64 0 0 1 .4 1.2c.2 0 .3.1.4.3s.4.4.4.5.8 0 .8 0h.1l.3-.8s-.3-.4-.2-.5-.4-.6-.4-.6a1.38 1.38 0 0 0-.3-.4 2.19 2.19 0 0 1-.3-.5c-.1-.3-.2-.5-.3-.8v-.1l.4-.5h.3c.1 0 .3-.1.4 0a1.38 1.38 0 0 0 .4.3c.3.2.3.1.4.2s.2.1.3.1a3.18 3.18 0 0 0 .9-.3s.1-.1 0-.3l-.4-.8c-.2-.1-.3-.3-.4-.4a3 3 0 0 1-.8-.8c-.1-.1-.2-.1-.2-.3a.6.6 0 0 1 .1-.4c.1-.2.2-.3.3-.5l.5-.6.4-.7s-.2-.2.1-.2a.6.6 0 0 0 .4-.1h1.4s-.1.1.1 0a1.38 1.38 0 0 1 .4-.3l.1-.3s.1-.4-.1-.5-.1-.3-.4-.4l-.9-.2a1.7 1.7 0 0 0-.7-.1c-.2 0-.3-.2-.6-.2s-.4-.1-.6-.1a.1.1 0 0 1-.1-.1c0-.1 0-.3.1-.3s.2-.3.3-.4l.3-.3.6-.9a4.33 4.33 0 0 0 .1-.5.6.6 0 0 1 .1-.4l.3-.6a1.38 1.38 0 0 0 .4-.3.37.37 0 0 1 .3-.1l.5-.2s-.1-.3.1-.1.3 0 .3.2.4.3.4.4.1.1.1.3.1.3 0 .4-.1.2-.2.3-.2.2-.1.3 0 .3.3.3.4.2.5.2.1 0 .2.1l.3-.3.2-.2.4-.1s0 .1.3-.2l.4-.4.1-.3v-.5c0-.1-.1-.7-.1-.8s.1-.3.1-.4a2.27 2.27 0 0 1 .1-.4l.3-.3s-.1-.3.1 0 .2.2.3.3h.8l.5-.3.5-.3h.1l.7-.3c.1-.1.3-.2.4-.3s.2-.1.3-.1-.2-.1.2 0 .4.2.5.2.5-.2.6-.2a6.89 6.89 0 0 0 .8-.3 2.09 2.09 0 0 0 .6.4 4.18 4.18 0 0 1 1 .4.6.6 0 0 0 .1.4.6.6 0 0 1 .1.4v.4c0 .1-.1.1.1.3s.3.4.3.6a.37.37 0 0 1-.1.3c-.1.1-.1 0-.1.3a.9.9 0 0 1-.1.5c0 .1-.1.1 0 .3a1.38 1.38 0 0 0 .3.4.37.37 0 0 1 .1.3v1c0 .1.1.3 0 .3s-.6.3-.6.4v.3c0 .1 0 .3-.1.3s-.1.3-.1.3l-.7-.1s-.5 0-.4.1a.52.52 0 0 1 .2.4c0 .2.1.3-.1.3s-.5.1-.5.2-.1.2 0 .3-.1.4-.1.4a.35.35 0 0 0-.1.2 1 1 0 0 0 .1.3l-.1.2s-.3.1-.3.2-.3.4-.4.6a1 1 0 0 0-.1.3 1.27 1.27 0 0 1 .1.6v.5a.6.6 0 0 1-.1.4c-.1.1-.1.1-.1.3a.76.76 0 0 1-.1.4l-.3.5-.7.4-.7.1-.5.1-.8-.3v-1l-.5-.1-.7-.1a.49.49 0 0 0-.3.1c-.3.1-.5.2-.8.3l-.4.3-.3.7-.3.6-.3.4a2.18 2.18 0 0 1 .5.8v1c-.1.3.1.6 0 .8s.8.9.8.9.7.4.7.8.9 0 .9 0l1.8.4h1.4l.8.4 1.9.8 1.1-.3.7-1h1.7l.3-.7 1-.6.6-.1 1.5.1.7.8 1.2.3.9-.9 1.2-.3.8-.2.4.1v-.9l.5-1.3 1.7-.8 1.5-.1.8.1.9-.1 1.1.6.4.4.6.2-.3.6s.1.5-.1.7a.48.48 0 0 0-.1.6l1.3.7s.5-.1.5-.2.2-.3.3-.5l1-.1 1.1-.3.9.2 1.5.6.6.5v.7M155.18 68.16l-.8.4s-.8.1-.8 0-1-.2-1-.2l-.5.3h-.4l-.3.4v.2c0 .1-.2.5 0 .6s.3.1.3.4.1.4.1.6l-.1.3a.52.52 0 0 0 .2.4 1.79 1.79 0 0 0 .7.5c.1 0-.1-.3.4 0s.7.4 1.1.6h.4a3.11 3.11 0 0 0 .6-.4s.1-.3.3-.3l.7-.3s.2 0 .1-.4v-.8s.4.3.4 0-.2-.6-.2-.8v-.5l.2-.5.1-.3-.8-.2c-.2.2-.7 0-.7 0ZM158.18 76.56l-.3.6.6.3s.3.2.3 0v-.8l-.6-.1Z" class="cls-2"/></g><path id="AC2" d="M38.2 43.5a3.29 3.29 0 0 1 .3.6l.3.6.1.3.1.4a3 3 0 0 1-.4.8c-.1.1 0 .2 0 .3s.1.2.1.3l.1.1a1.27 1.27 0 0 1 .6-.1c.4-.1.1 0 .2 0s.3.5.4.7.1.1.1.2-.2.2-.3.2a5.64 5.64 0 0 1-.7.1c-.3 0-.1-.1-.1-.1l-.1.3v.2a1.38 1.38 0 0 1 .3.4l.1.3c-.2 0-.4.1-.6.1a1.42 1.42 0 0 0-.2.6c0 .1.6.3.7.3a1.38 1.38 0 0 1 .4.3c0 .1.1.7.1.7a2.65 2.65 0 0 1 .5.6c.1.2.2.5.3.7s.5.1.5.1h.7c.3.1.5.2.8.3a.76.76 0 0 1 .4.2l.1.2.1-.6.5-.1.1-.6.4-.4.3-.4.1-.3a1.27 1.27 0 0 1 .1-.6l.3-.2v-.1l-.1-.4-.1-.2-.3-.3-.5-.5a.6.6 0 0 1-.1-.4v-1h.6l.1-.5.2-.6.4-.3.1-.5.1-.3.6-.8s-.4-.2-.4-.1-.8 0-.8 0l-.9-.7-.7-.4a2.09 2.09 0 0 1-.4-.6c0-.1-.5-.5-.7-.6s-.6-.5-.8-.6-.6.3-.7.3-.3.2-.5.3v.3l-.8.4-.6.3-.4.3Z" class="cls-2" transform="translate(.68 -.24)"/><g id="AC36"><path d="M54.08 114.46ZM67.58 107.56h0l-.7.6-.4.3-.3.3c-.2.2-.3.4-.5.6a.37.37 0 0 0-.1.3l-.58-.26-.45-.47c-.2-.2.11-.23 0-.33s-.12-.36-.22-.46l-.57-.26v-1.6l-.67-.22-.3 1.5a2 2 0 0 1-.4.8l-.3.6-.7.6-1.43-1.59a2.85 2.85 0 0 0-.17-.47.8.8 0 0 1-.1-.47c0-.2 0-.35.18-.45a.43.43 0 0 0 .08-.3 3.11 3.11 0 0 1-.66-.42c-.2-.2-.3-.1-.3-.2s.05 0 0-.16-.19-.13-.09-.33a.79.79 0 0 0 .06-.45c0-.1.11-.26 0-.46s.07-.32.07-.42.15-.37.35-.47l.56-.57c-.1-.2-.18-.44-.28-.64s.25-.37.25-.57v-.3l.06-1 .29-.92-.1-.12-.3-.5-.72-.73c-.1-.2-.2-.2-.3-.4a1.05 1.05 0 0 1-.27-.44v-.5a1.92 1.92 0 0 0 .46-.42l.25-.51a1.58 1.58 0 0 1 .15-.39l-.8-.4-.2-.6c-.1-.4-.2-.7-.3-1.1 0-.2.1-1.1.1-1.1l-.1-.2-.4-.4a8.74 8.74 0 0 0-.8-1 .85.85 0 0 1-.3-.5s-.7-1.1-.6-1.2v-.4a4.87 4.87 0 0 0 .4-1.1.76.76 0 0 1 .2-.5l-.3-.6a6.89 6.89 0 0 1-.3-.8v-.6c0-.1.4-.4.4-.4l.6-.1.6.3.8.4.4.4.8.2.8.6.9.3.2-.2.7-.6.2-.4.4-.4.1-.1s.5-.3.5-.6.3 0 .3 0l.4-.3h.8a.9.9 0 0 0 .5.1c.1 0 .3.1.4.1l.6-.3c.1 0 .1-.1.1-.3s-.2-.4-.1-.6 0-.3-.1-.3l-.3-.6c-.1-.3-.1-.1-.4-.4s-.1-.3-.1-.5-.6-.4-.7-.4a2.65 2.65 0 0 1-.6-.5c-.1-.2-.2-.2-.1-.3a.91.91 0 0 0-.3-.7c-.2-.2-.3-.1-.4-.3s-.3-.3-.4-.5.1-.2.2-.3-.2-.6-.2-.6l-.8-.7-.3-.1s-.3-.3-.3-.4a1.42 1.42 0 0 0-.2-.6l-.6-.1s-.1.3-.2.3a2.19 2.19 0 0 1-.5-.3l-.4-.4-.3-.3-.3-.8-.9-.4c-.1-.1-.4-.1-.5-.1a3.11 3.11 0 0 1-.6-.4l-.7-.1a1.88 1.88 0 0 0-.8.2c-.1.2-.2.3-.3.5l-.5.3-.9.3-1.25-.1-.6.4-.8-.2-.7.2-1.5.4-.9.5-.8.5-.3.3-1 .1-1.1-.4-.4-.8-.3-.8-.4-.8-.1-.4-.2-.2s-.1-.5-.1-.6-.1-.2-.1-.3l-.1-.3-.3-.4-.4-.5-.3-.1-.2.4-.3.4-.4.1-.3-.1-.3-.5.1-.5a.37.37 0 0 0-.1-.3.49.49 0 0 0-.3-.1l-.4.2-.7.2-.8-.4-1.2-.7s-1-.5-1.1-.6c-.3-.1-.5-.3-.8-.4-.1-.2-.2-.3-.3-.5a2.65 2.65 0 0 0-.5-.6c-.1-.1-.5-.4-.5-.4s-.3-.1-.4-.2a2.27 2.27 0 0 0-.4.1l-1 .9-.3.4-.1.3a8.33 8.33 0 0 0 .4 1.5c.1.1.1.3.2.4s.6.4.6.5-.1.4-.3.6-.1.2-.2.3l-.4-.3-.3-.9c-.1-.3-.2-.7-.3-1l-.4-.4-1.7-.5c-.2 0-.3-.1-.5-.1s-.5.1-.5 0-.8.4-1.1.4a.71.71 0 0 0-.6.3.37.37 0 0 1-.1.3l.6.4a1.69 1.69 0 0 1 .5.2c.2.1.3.2.5.3s0 .5 0 .5h-.7c-.3 0-.3.2-.3.2l.1.3a1.27 1.27 0 0 0 .6.1c.2 0 .3.3.3.3l.4.5c.2 0 .4.1.6.1a.49.49 0 0 1 .1.3v.6c0 .1-.1.2-.2.3l-.5.4a.52.52 0 0 1-.4.2c-.1 0-.3.2-.4.3s-.2.1-.3.3-.3.4-.4.6-.1.3-.1.3v.4l-.4.3h-.1c-.1 0-.2-.1-.4-.1l.1.2s-.1.3-.2.3.1.4.1.4l-.2.3-.2.3-.4.1s-.4.1-.4 0-.3-.1-.3-.1-.3-.3-.3-.4.3-.2.3-.2.2-.3.3-.4a.77.77 0 0 1 .3-.2c.1-.1.2-.1.2-.3s0-.1-.1-.2 0-.2-.1-.4a.22.22 0 0 1 .1-.3l.2-.6c.1-.2.3-.3.4-.5s0-.1.3-.3 0-.3 0-.3l-.3-.3c-.1-.1-.2-.1-.2-.2v-.4c0-.1.1-.2.2-.3s.1-.3.1-.4.1-.1.1-.2.1-.5.1-.8-.1-.3-.1-.6-.1-.1-.3-.2-.3-.1-.4-.1l-.3.6a.6.6 0 0 1-.1.4c-.1.2 0 .2 0 .2l-.1.4-.1.5s-.1.5-.1.6a2.19 2.19 0 0 1-.3.5c0 .1-.1.2-.1.3s-.1.3-.2.4l-.4.4-.1.1h-.6c-.1 0-.1-.1-.2-.5s0 0 0-.3 0 0-.1-.3a.68.68 0 0 0-.3-.4c-.1-.1-.2 0-.5 0s-.3.1-.3.1-.3.2-.3.3-.2.3-.3.5 0 .3 0 .3v.4a1.33 1.33 0 0 0 .3.8.45.45 0 0 1 0 .5l-.4.6c-.2.3 0 0-.1 0s-.5-.1-.6-.3-.3-.1-.4-.1-.1 0-.2-.1l-.4.7-.6.7-.9 1.6-.1.2a.9.9 0 0 1-.1.5l-.1.2c0 .2-.1.4-.1.6v.3l.1.4h.8c.4 0 .3-.1.4-.3s0 0-.1-.2-.1-.1-.1-.3v-.4a3.54 3.54 0 0 0 .1-.6c0-.3.1-.1.1-.1s.4 0 .5.1a.37.37 0 0 0 .3.1 2.19 2.19 0 0 0 .5.3c.1.2.3.3.4.4a.6.6 0 0 0 .4.1c.2 0 .2.1.2.1l.1.4v.5c0 .1-.1.2-.1.3h-.6a2 2 0 0 0-.8.1c-.4.1-.4.2-.4.3s-.2.4-.3.4.1.4.1.4l.2.1h.5c.3-.1.3.2.4.3a1.27 1.27 0 0 0 .6-.1c.1-.1.1 0 .1 0l.8-.1c.1-.1.2-.1.3-.3.1 0 .3-.1.4-.1a.1.1 0 0 0 .1-.1.37.37 0 0 0 .1-.3c0-.1.1-.1.1-.3s-.1-.2-.1-.3.2-.2.7-.5.3 0 .3 0a1 1 0 0 1 .1.3v.4c0 .1-.1.3-.1.4s-.1.3-.2.4-.1.3-.2.5l.1.1a6.13 6.13 0 0 0 .6.4l.6.5-.5 1.3-.3.8c0 .2-.1.3-.1.5s-.1.4-.1.6c.1 0 .3.1.4.1l.6.4.3.9v.4l-.1.7v.8l-.1.6c-.1.2-.1.4-.2.6v.4l.4.6a1.09 1.09 0 0 0 .1.5c0 .2-.1.4-.1.6v.3l.1.5.1.5-.1.5.3.3-.1.3h1.5c.1 0 .2-.1.3-.1s.4.1.6.3a1.42 1.42 0 0 1 .2.4s.3-.3.5-.3-.1-.6-.1-.6l-.3-.5h-.1a.37.37 0 0 0-.1-.3v-.5a.37.37 0 0 0-.1-.3 1.4 1.4 0 0 0 .4-.4.6.6 0 0 0-.1-.4c.1-.2-.1-.2-.2-.2s-.1-.3-.1-.3a4.33 4.33 0 0 1-.1-.5c0-.1-.3-.3-.4-.4a.6.6 0 0 1-.1-.4c0-.1-.3-.3-.3-.5a1.38 1.38 0 0 0-.3-.4c-.1-.1.1-.4.1-.6a.37.37 0 0 1 .2-.3c0-.1-.1-.3-.1-.4s-.1-.3-.1-.4v-.3a6.13 6.13 0 0 0 .6-.4.3.3 0 0 0 0-.4 4 4 0 0 1-.3-.4l-.3-.3c-.1-.1-.2-.1-.3-.2s-.1-.1-.2-.1l-.5-.1c-.1 0-.1-.2-.1-.2l.1-.1.3-.3a1.47 1.47 0 0 0 .2-.4.37.37 0 0 0-.1-.3s.1-.6.1-.7a4.33 4.33 0 0 1 .1-.5l.1-.3.5-.2.3 1.1a1.7 1.7 0 0 0 .1.7c.1.1.1.2.1.4l.1.2.1.3.3.3.3.3h1l.1-.1.3-.3c.2-.2.1-.2.1-.2l.1-.3a1.7 1.7 0 0 1 .1-.7.77.77 0 0 0 .1-.3l.2-.3h.3l.3.1a.37.37 0 0 1 .1.3c0 .1-.1.2-.1.3l-.1.4-.1.4.1.5v.3c0 .1-.1.1-.1.2s-.1.2-.1.4v.2l.1.2.1.3.1.6.1.4c0 .1-.1.2-.1.3s.1.2.1.3.3.2.3.3.3.3.3.3l.2.4c.1.2.1.2.2.3v.3l-.3.6-.4.4v.3l-.3.2v.3l.3.7.1.4.1.7v.3a.76.76 0 0 1-.1.4.6.6 0 0 1-.1.4l-.3.3c-.1.1-.2.1-.3.2s.1.3.1.4.2.3.2.3l.4.3.3.6c.1 0 .2.1.3.1s.3.3.4.3.2.1.3.2.2.1.3.1l.2.3-.1.1-.2.3-.1.1-.8.1c-.2.1-.4.1-.6.2l-.2.1-.1.4v.5l.3.2.2.2.1.1.3.3.4.4.3.6-.4.6-.1.2-.3.5-.2.3v.6c0 .1.1.2.1.3a.37.37 0 0 1 .1.3l.1.1v.5a1.38 1.38 0 0 1-.3.4 3.21 3.21 0 0 0-.3.5l-.3.2-.5.3-.3.3c-.2.2-.1.1-.3.4a.45.45 0 0 0 0 .5v.3c0 .1.3.2.3.2l.2-.1c.1-.1.1-.2.2-.3l.3-.3h.6a.1.1 0 0 1 .1.1l.6.6a.35.35 0 0 1 .1.2c0 .1.1 0 .3 0s.1-.1.1-.1h.7c.1 0 .2.2.2.2l.4.4.3.4.4.9h.3l.2.1c.2.1.1.4.1.4l-.2.1-.2.4v.1l.4.1v.3a3.29 3.29 0 0 0 .3.6c.1.1.1.2.3.2l.1.3.4.2.1.5-.1.3.1.9s.3 0 .3-.1.3 0 .4 0h.4l.6.3-.1.2h.7l.3-.1s.2-.2.2-.3v-.1l.3-.3s.4-.3.5-.4.4-.1.4-.3.4-.1.4-.1h.4l.6-.1.1-.1.5-.2s.3 0 .4-.1.4-.1.6-.2a1.38 1.38 0 0 0 .4-.3c.1-.1.2-.1.3-.2s.2-.3.3-.4 0-.2-.1-.5 0-.3 0-.4.1-.3.1-.4a.52.52 0 0 1 .2-.4c.1-.1.3-.3.2-.5s.2-.3.3-.6.8-.1.8-.1a1.27 1.27 0 0 1 .6-.1c.2 0 .3-.1.8-.3s.4-.1.4-.1l.7.5.2.1s.5.1.6.1.4-.3.5-.3.2.1.3.2a2.19 2.19 0 0 1 .3.5c.1.2 0 .3 0 .3a3.18 3.18 0 0 1 .9-.3l.5.5a2.92 2.92 0 0 1-.2.9c-.1 0-.1.5-.1.6a2.09 2.09 0 0 0 .4.6s.3.3.2.4v.3h.9c.1 0 .2.1.3.2s.3.2.4.3.2.3.2.3l.1-.1.2-.2v-.4c0-.1.2-.1.4-.2s.2.1.4.2l.2.1a3.21 3.21 0 0 0 .5-.3l.3-.3c.1-.1.1.1.1.1l.7.3.4-.3a3 3 0 0 1 .8.4c.2 0 .3.1.5.1a2.18 2.18 0 0 0 .5-.4 1.47 1.47 0 0 1 .2-.4h.4c.3-.1.6-.1.8-.3l.1-.1.1-.2c.1 0 .2.1.3.1s.1.1.2.1l.3-.1.5-.2.4.5-.4-.3-.1.6v.7c.1.2.2.3.3.5l.3.6a2.27 2.27 0 0 1 .1.4c0 .2-.1.3-.1.5v.3s.5.4.5.5v.2l1 .1.6-.5.3.3a2.19 2.19 0 0 1 .3.5c0 .1.1.2.1.3s.5.4.5.6v.2l.8.1.4.1.6-.1s.6-.1.7-.3.2-.1.3-.3a.9.9 0 0 0 .1-.5.6.6 0 0 0-.1-.4v-.4c.1-.1.2-.3.3-.4l.6-.1.2.4.4.3s.6.1.7.1.1.1.1.4v.5c0 .2.4.2.5.1s.2-.2.2-.3a1.47 1.47 0 0 1 .2-.4c.1-.2 0-.2 0-.3s.3-.1.3-.2l.2-.2-.1-.3c0-.1 0-.1-.1-.2s-.2-.3-.3-.4a.31.31 0 0 1-.1-.2l.3-.3a.49.49 0 0 0 .1-.3 1.7 1.7 0 0 0 .7-.1 6.73 6.73 0 0 0-.7-1.1c-.3-.3 0-.4.1-.6s0-.4 0-.6-.3-.5-.4-.6-.2-.3-.3-.5v-.7c0-.3.5-.1.5-.1a3.74 3.74 0 0 0-.4-1.1c-.2-.2 0-.1-.1-.5a2.81 2.81 0 0 1-.1-.5 1.88 1.88 0 0 0 .2-.8 1 1 0 0 0-.3-.6l-.6-.3c-.3-.2-.1.1-.3 0s-.3-.7-.3-.7l-.7-.2-1 .2M67.68 107.76l-.1-.2" class="cls-2"/></g><text id="AT32-1" class="cls-3" transform="translate(95.49 42.56)"></text><text class="cls-4" transform="translate(99.49 42.56)"> </text><text id="AT32-2" class="cls-3" transform="translate(100.59 42.56)"></text><text class="cls-4" transform="translate(104.59 42.56)"> </text><text id="AT32-3" class="cls-3" transform="translate(105.69 42.56)"></text><text id="AT35-1" class="cls-3" transform="translate(102.68 106.14)"></text><text class="cls-4" transform="translate(106.68 106.14)"> </text><text id="AT35-2" class="cls-3" transform="translate(107.78 106.14)"></text><text class="cls-4" transform="translate(111.78 106.14)"> </text><text id="AT35-3" class="cls-3" transform="translate(112.88 106.14)"></text><text class="cls-4" transform="translate(116.88 106.14)"> </text><text id="AT35-3-2" class="cls-3" data-name="AT35-3" transform="translate(117.98 106.14)"></text><text id="AT36-1" class="cls-3" transform="translate(81.16 151.07)"></text><text class="cls-4" transform="translate(85.16 151.07)"> </text><text id="AT36-2" class="cls-3" transform="translate(86.26 151.07)"></text><text class="cls-4" transform="translate(90.26 151.07)"> </text><text id="AT36-3" class="cls-3" transform="translate(91.36 151.07)"></text><text class="cls-4" transform="translate(95.36 151.07)"> </text><text id="AT36-4" class="cls-3" transform="translate(96.46 151.07)"></text><text id="AT38-1" class="cls-3" transform="translate(30.71 169.43)"></text><text class="cls-4" transform="translate(34.71 169.43)"> </text><text id="AT38-2" class="cls-3" transform="translate(35.81 169.43)"></text><text class="cls-4" transform="translate(39.81 169.43)"> </text><text id="AT38-3" class="cls-3" transform="translate(40.91 169.43)"></text><text class="cls-4" transform="translate(44.91 169.43)"> </text><text id="AT38-4" class="cls-3" transform="translate(46.01 169.43)"></text><text id="AT37-1" class="cls-3" transform="translate(44.16 131.79)"></text><text class="cls-4" transform="translate(48.16 131.79)"> </text><text id="AT37-2" class="cls-3" transform="translate(49.26 131.79)"></text><text class="cls-4" transform="translate(53.26 131.79)"> </text><text id="AT37-3" class="cls-3" transform="translate(54.36 131.79)"></text><text class="cls-4" transform="translate(58.36 131.79)"> </text><text id="AT37-4" class="cls-3" transform="translate(59.46 131.79)"></text><text id="AT34-1" class="cls-3" transform="translate(35.51 86.94)"></text><text class="cls-4" transform="translate(39.51 86.94)"> </text><text id="AT34-2" class="cls-3" transform="translate(40.61 86.94)"></text><text class="cls-4" transform="translate(44.61 86.94)"> </text><text id="AT34-3" class="cls-3" transform="translate(45.71 86.94)"></text><text class="cls-4" transform="translate(49.71 86.94)"> </text><text id="AT34-4" class="cls-3" transform="translate(50.81 86.94)"></text><text id="AT33-1" class="cls-3" transform="translate(72.66 79.89)"></text><text class="cls-4" transform="translate(76.66 79.89)"> </text><text id="AT33-2" class="cls-3" transform="translate(77.76 79.89)"></text><text class="cls-4" transform="translate(81.76 79.89)"> </text><text id="AT33-3" class="cls-3" transform="translate(82.86 79.89)"></text><text class="cls-4" transform="translate(86.86 79.89)"> </text><text id="AT33-4" class="cls-3" transform="translate(87.96 79.89)"></text><text id="AT31-1" class="cls-3" transform="translate(55.78 57.06)"></text><text class="cls-4" transform="translate(59.78 57.06)"> </text><text id="AT31-2" class="cls-3" transform="translate(60.88 57.06)"></text><text class="cls-4" transform="translate(64.88 57.06)"> </text><text id="AT31-3" class="cls-3" transform="translate(65.98 57.06)"></text><text id="AT2" class="cls-3" transform="translate(26.6 47.92)"></text><text id="AT5" class="cls-3" transform="translate(35.14 157.82)"></text><text id="AT6" class="cls-3" transform="translate(119.21 163.4)"></text><text id="AT4" class="cls-3" transform="translate(104.24 130.94)"></text><text id="AT7" class="cls-3" transform="translate(125.48 146.36)"></text><text id="AT39-1" class="cls-3" transform="translate(32.4 232.38)"></text><text class="cls-4" transform="translate(36.4 232.38)"> </text><text id="AT39-2" class="cls-3" transform="translate(37.5 232.38)"></text><text class="cls-4" transform="translate(41.5 232.38)"> </text><text id="AT39-3" class="cls-3" transform="translate(42.6 232.38)"></text><text id="AT8" class="cls-3" transform="translate(52.54 96.24)"></text><path id="AC1" d="M59.9 45.7v-.2l-.1-.4-.6.1s0 .1-.3.2a2.92 2.92 0 0 1-.9.2.19.19 0 0 0-.3 0c-.1.1-.3.2-.4.3v-1.1a1.76 1.76 0 0 1 .4-.5l.2-.6-.1-.5-.3-.4.3-.5a.19.19 0 0 0 0-.3 4.88 4.88 0 0 0-.7-.3l.1-.6.1-.9-.2-.3-.3-.4-.8.1a.9.9 0 0 1-.5-.1 4 4 0 0 0-.4-.3l-.4-.2s-.4.1-.4.2-.3.4-.3.6-.3.4-.3.4a.76.76 0 0 0-.2.4.76.76 0 0 1-.2.5c-.1.1-.1.2-.1.4s.3.2 0 .3-.4.1-.6.1c0-.1-.1-.2-.1-.3s-.2-.3-.3-.3-.3-.4-.3-.4 0-.3-.1-.2a1.88 1.88 0 0 1-.8.2l-.3.3s-.2 0-.2.1-.1.3-.2.4-.1.2-.1.3-.2.3-.2.5v.8a.6.6 0 0 1-.1.4c-.1.1-.3.2-.4.3l-.3-.1H49l-.1.1-.3-.1h-.4l-.8-.1-.5-.3-.2-.3-.3-.1a1.38 1.38 0 0 0-.4.3.37.37 0 0 0-.1.3l-.1.2-.5.7-.2.4-.1.6h.4l.3.2.4.1.4.1v.4l.2.7v.4l-.4.3-.1.4.3.5.4.1 1-.3.4.3.1.6s.3.2.3.3a4.17 4.17 0 0 0 .2.6 4.33 4.33 0 0 1 .1.5c0 .1.4.3.5.2s.5-.2.7-.3c.2.1.3.2.5.3a1.27 1.27 0 0 0 .6.1c.1 0 .6-.3.7-.3a5.94 5.94 0 0 0 .8-.4.1.1 0 0 1 .1-.1h0c.2 0 .3.1.5.1l.4-.1.3-.3a.37.37 0 0 1 .1.3v.6l.1.4.1.2a.37.37 0 0 1 .3.1c.3 0 .5-.1.8-.1a3.29 3.29 0 0 1 .6-.3V51l.3-.4.2-.1.5.1.3-.1.2-.1s.1-.3.2-.3.3-.2.4-.3l.4-.1.1-.7-.3-.4-.4-.3.1-.2.4-.4a.37.37 0 0 0 .1-.3.78.78 0 0 1 .4-.4c.1 0 .3-.3.3-.3l.3-.1.1-.1.1-.1v-.1Z" class="cls-2" transform="translate(.68 -.24)"/><text id="AT1" class="cls-3" transform="translate(47.49 47.92)"></text></svg>